<svg aria-hidden="true" style="position: absolute; width: 0; height: 0; overflow: hidden;" version="1.1" xmlns="http://www.w3.org/2000/svg" xmlns:xlink="http://www.w3.org/1999/xlink">
<defs>
<symbol id="icon-strava" viewBox="0 0 32 32">
<path d="M20.516 23.925l-2.785-5.488h-4.087l6.872 13.563 6.867-13.563h-4.088zM13.951 10.972l3.781 7.464h5.563l-9.344-18.436-9.333 18.437h5.559z"></path>
</symbol>
<symbol id="icon-telegram" viewBox="0 0 32 32">
<path d="M21.232 23.339l2.625-12.375c0.232-1.089-0.393-1.518-1.107-1.25l-15.429 5.946c-1.054 0.411-1.036 1-0.179 1.268l3.946 1.232 9.161-5.768c0.429-0.286 0.821-0.125 0.5 0.161l-7.411 6.696-0.286 4.071c0.411 0 0.589-0.179 0.804-0.393l1.929-1.857 4 2.946c0.732 0.411 1.25 0.196 1.446-0.679zM32 16c0 8.839-7.161 16-16 16s-16-7.161-16-16 7.161-16 16-16 16 7.161 16 16z"></path>
</symbol>
<symbol id="icon-flickr" viewBox="0 0 27 32">
<path d="M22.286 2.286q2.125 0 3.634 1.509t1.509 3.634v17.143q0 2.125-1.509 3.634t-3.634 1.509h-17.143q-2.125 0-3.634-1.509t-1.509-3.634v-17.143q0-2.125 1.509-3.634t3.634-1.509h17.143zM12.464 16q0-1.571-1.107-2.679t-2.679-1.107-2.679 1.107-1.107 2.679 1.107 2.679 2.679 1.107 2.679-1.107 1.107-2.679zM22.536 16q0-1.571-1.107-2.679t-2.679-1.107-2.679 1.107-1.107 2.679 1.107 2.679 2.679 1.107 2.679-1.107 1.107-2.679z"></path>
</symbol>
<symbol id="icon-medium" viewBox="0 0 32 32">
<path d="M10.661 7.518v20.946q0 0.446-0.223 0.759t-0.652 0.313q-0.304 0-0.589-0.143l-8.304-4.161q-0.375-0.179-0.634-0.598t-0.259-0.83v-20.357q0-0.357 0.179-0.607t0.518-0.25q0.25 0 0.786 0.268l9.125 4.571q0.054 0.054 0.054 0.089zM11.804 9.321l9.536 15.464-9.536-4.75v-10.714zM32 9.643v18.821q0 0.446-0.25 0.723t-0.679 0.277-0.839-0.232l-7.875-3.929zM31.946 7.5q0 0.054-4.58 7.491t-5.366 8.705l-6.964-11.321 5.786-9.411q0.304-0.5 0.929-0.5 0.25 0 0.464 0.107l9.661 4.821q0.071 0.036 0.071 0.107z"></path>
</symbol>
<symbol id="icon-heart" viewBox="0 0 32 32">
<path d="M16 29.714q-0.464 0-0.786-0.321l-11.143-10.75q-0.179-0.143-0.491-0.464t-0.991-1.17-1.214-1.741-0.955-2.161-0.42-2.464q0-3.929 2.268-6.143t6.268-2.214q1.107 0 2.259 0.384t2.143 1.036 1.705 1.223 1.357 1.214q0.643-0.643 1.357-1.214t1.705-1.223 2.143-1.036 2.259-0.384q4 0 6.268 2.214t2.268 6.143q0 3.946-4.089 8.036l-11.125 10.714q-0.321 0.321-0.786 0.321z"></path>
</symbol>
<symbol id="icon-book" viewBox="0 0 30 32">
<path d="M29.268 8.536q0.714 1.018 0.321 2.304l-4.911 16.179q-0.339 1.143-1.366 1.92t-2.188 0.777h-16.482q-1.375 0-2.652-0.955t-1.777-2.348q-0.429-1.196-0.036-2.268 0-0.071 0.054-0.482t0.071-0.661q0.018-0.143-0.054-0.384t-0.054-0.348q0.036-0.196 0.143-0.375t0.295-0.42 0.295-0.42q0.411-0.679 0.804-1.634t0.536-1.634q0.054-0.179 0.009-0.536t-0.009-0.5q0.054-0.196 0.304-0.5t0.304-0.411q0.375-0.643 0.75-1.643t0.446-1.607q0.018-0.161-0.045-0.571t0.009-0.5q0.071-0.232 0.393-0.545t0.393-0.402q0.339-0.464 0.759-1.509t0.491-1.723q0.018-0.143-0.054-0.455t-0.036-0.473q0.036-0.143 0.161-0.321t0.321-0.411 0.304-0.375q0.143-0.214 0.295-0.545t0.268-0.625 0.286-0.643 0.348-0.571 0.473-0.42 0.643-0.205 0.848 0.098l-0.018 0.054q0.679-0.161 0.911-0.161h13.589q1.321 0 2.036 1t0.321 2.321l-4.893 16.179q-0.643 2.125-1.277 2.741t-2.295 0.616h-15.518q-0.482 0-0.679 0.268-0.196 0.286-0.018 0.768 0.429 1.25 2.571 1.25h16.482q0.518 0 1-0.277t0.625-0.741l5.357-17.625q0.125-0.393 0.089-1.018 0.679 0.268 1.054 0.768zM10.268 8.571q-0.071 0.232 0.036 0.402t0.357 0.17h10.857q0.232 0 0.455-0.17t0.295-0.402l0.375-1.143q0.071-0.232-0.036-0.402t-0.357-0.17h-10.857q-0.232 0-0.455 0.17t-0.295 0.402zM8.786 13.143q-0.071 0.232 0.036 0.402t0.357 0.17h10.857q0.232 0 0.455-0.17t0.295-0.402l0.375-1.143q0.071-0.232-0.036-0.402t-0.357-0.17h-10.857q-0.232 0-0.455 0.17t-0.295 0.402z"></path>
</symbol>
<symbol id="icon-linkedin" viewBox="0 0 27 32">
<path d="M4.232 25.25h4.125v-12.393h-4.125v12.393zM8.625 9.036q-0.018-0.929-0.643-1.536t-1.661-0.607-1.688 0.607-0.652 1.536q0 0.911 0.634 1.527t1.652 0.616h0.018q1.054 0 1.696-0.616t0.643-1.527zM19.071 25.25h4.125v-7.107q0-2.75-1.304-4.161t-3.446-1.411q-2.429 0-3.732 2.089h0.036v-1.804h-4.125q0.054 1.179 0 12.393h4.125v-6.929q0-0.679 0.125-1 0.268-0.625 0.804-1.063t1.321-0.438q2.071 0 2.071 2.804v6.625zM27.429 7.429v17.143q0 2.125-1.509 3.634t-3.634 1.509h-17.143q-2.125 0-3.634-1.509t-1.509-3.634v-17.143q0-2.125 1.509-3.634t3.634-1.509h17.143q2.125 0 3.634 1.509t1.509 3.634z"></path>
</symbol>
<symbol id="icon-twitter" viewBox="0 0 30 32">
<path d="M28.929 7.286q-1.196 1.75-2.893 2.982 0.018 0.25 0.018 0.75 0 2.321-0.679 4.634t-2.063 4.437-3.295 3.759-4.607 2.607-5.768 0.973q-4.839 0-8.857-2.589 0.625 0.071 1.393 0.071 4.018 0 7.161-2.464-1.875-0.036-3.357-1.152t-2.036-2.848q0.589 0.089 1.089 0.089 0.768 0 1.518-0.196-2-0.411-3.313-1.991t-1.313-3.67v-0.071q1.214 0.679 2.607 0.732-1.179-0.786-1.875-2.054t-0.696-2.75q0-1.571 0.786-2.911 2.161 2.661 5.259 4.259t6.634 1.777q-0.143-0.679-0.143-1.321 0-2.393 1.688-4.080t4.080-1.688q2.5 0 4.214 1.821 1.946-0.375 3.661-1.393-0.661 2.054-2.536 3.179 1.661-0.179 3.321-0.893z"></path>
</symbol>
<symbol id="icon-github" viewBox="0 0 27 32">
<path d="M27.429 16q0 4.482-2.616 8.063t-6.759 4.955q-0.482 0.089-0.705-0.125t-0.223-0.536v-3.768q0-1.732-0.929-2.536 1.018-0.107 1.83-0.321t1.679-0.696 1.446-1.188 0.946-1.875 0.366-2.688q0-2.161-1.411-3.679 0.661-1.625-0.143-3.643-0.5-0.161-1.446 0.196t-1.643 0.786l-0.679 0.429q-1.661-0.464-3.429-0.464t-3.429 0.464q-0.286-0.196-0.759-0.482t-1.491-0.688-1.536-0.241q-0.786 2.018-0.125 3.643-1.411 1.518-1.411 3.679 0 1.518 0.366 2.679t0.938 1.875 1.438 1.196 1.679 0.696 1.83 0.321q-0.714 0.643-0.875 1.839-0.375 0.179-0.804 0.268t-1.018 0.089-1.17-0.384-0.991-1.116q-0.339-0.571-0.866-0.929t-0.884-0.429l-0.357-0.054q-0.375 0-0.518 0.080t-0.089 0.205 0.161 0.25 0.232 0.214l0.125 0.089q0.393 0.179 0.777 0.679t0.563 0.911l0.179 0.411q0.232 0.679 0.786 1.098t1.196 0.536 1.241 0.125 0.991-0.063l0.411-0.071q0 0.679 0.009 1.589t0.009 0.964q0 0.321-0.232 0.536t-0.714 0.125q-4.143-1.375-6.759-4.955t-2.616-8.063q0-3.732 1.839-6.884t4.991-4.991 6.884-1.839 6.884 1.839 4.991 4.991 1.839 6.884z"></path>
</symbol>
<symbol id="icon-link" viewBox="0 0 30 32">
<path d="M26 21.714q0-0.714-0.5-1.214l-3.714-3.714q-0.5-0.5-1.214-0.5-0.75 0-1.286 0.571 0.054 0.054 0.339 0.33t0.384 0.384 0.268 0.339 0.232 0.455 0.063 0.491q0 0.714-0.5 1.214t-1.214 0.5q-0.268 0-0.491-0.063t-0.455-0.232-0.339-0.268-0.384-0.384-0.33-0.339q-0.589 0.554-0.589 1.304 0 0.714 0.5 1.214l3.679 3.696q0.482 0.482 1.214 0.482 0.714 0 1.214-0.464l2.625-2.607q0.5-0.5 0.5-1.196zM13.446 9.125q0-0.714-0.5-1.214l-3.679-3.696q-0.5-0.5-1.214-0.5-0.696 0-1.214 0.482l-2.625 2.607q-0.5 0.5-0.5 1.196 0 0.714 0.5 1.214l3.714 3.714q0.482 0.482 1.214 0.482 0.75 0 1.286-0.554-0.054-0.054-0.339-0.33t-0.384-0.384-0.268-0.339-0.232-0.455-0.063-0.491q0-0.714 0.5-1.214t1.214-0.5q0.268 0 0.491 0.063t0.455 0.232 0.339 0.268 0.384 0.384 0.33 0.339q0.589-0.554 0.589-1.304zM29.429 21.714q0 2.143-1.518 3.625l-2.625 2.607q-1.482 1.482-3.625 1.482-2.161 0-3.643-1.518l-3.679-3.696q-1.482-1.482-1.482-3.625 0-2.196 1.571-3.732l-1.571-1.571q-1.536 1.571-3.714 1.571-2.143 0-3.643-1.5l-3.714-3.714q-1.5-1.5-1.5-3.643t1.518-3.625l2.625-2.607q1.482-1.482 3.625-1.482 2.161 0 3.643 1.518l3.679 3.696q1.482 1.482 1.482 3.625 0 2.196-1.571 3.732l1.571 1.571q1.536-1.571 3.714-1.571 2.143 0 3.643 1.5l3.714 3.714q1.5 1.5 1.5 3.643z"></path>
</symbol>
<symbol id="icon-bars" viewBox="0 0 27 32">
<path d="M27.429 24v2.286q0 0.464-0.339 0.804t-0.804 0.339h-25.143q-0.464 0-0.804-0.339t-0.339-0.804v-2.286q0-0.464 0.339-0.804t0.804-0.339h25.143q0.464 0 0.804 0.339t0.339 0.804zM27.429 14.857v2.286q0 0.464-0.339 0.804t-0.804 0.339h-25.143q-0.464 0-0.804-0.339t-0.339-0.804v-2.286q0-0.464 0.339-0.804t0.804-0.339h25.143q0.464 0 0.804 0.339t0.339 0.804zM27.429 5.714v2.286q0 0.464-0.339 0.804t-0.804 0.339h-25.143q-0.464 0-0.804-0.339t-0.339-0.804v-2.286q0-0.464 0.339-0.804t0.804-0.339h25.143q0.464 0 0.804 0.339t0.339 0.804z"></path>
</symbol>
<symbol id="icon-pinterest" viewBox="0 0 27 32">
<path d="M27.429 16q0 3.732-1.839 6.884t-4.991 4.991-6.884 1.839q-1.982 0-3.893-0.571 1.054-1.661 1.393-2.929 0.161-0.607 0.964-3.768 0.357 0.696 1.304 1.205t2.036 0.509q2.161 0 3.857-1.223t2.625-3.366 0.929-4.821q0-2.036-1.063-3.821t-3.080-2.911-4.554-1.125q-1.875 0-3.5 0.518t-2.759 1.375-1.946 1.973-1.196 2.313-0.384 2.393q0 1.857 0.714 3.268t2.089 1.982q0.536 0.214 0.679-0.357 0.036-0.125 0.143-0.554t0.143-0.536q0.107-0.411-0.196-0.768-0.911-1.089-0.911-2.696 0-2.696 1.866-4.634t4.884-1.938q2.696 0 4.205 1.464t1.509 3.804q0 3.036-1.223 5.161t-3.134 2.125q-1.089 0-1.75-0.777t-0.411-1.866q0.143-0.625 0.473-1.67t0.536-1.839 0.205-1.348q0-0.893-0.482-1.482t-1.375-0.589q-1.107 0-1.875 1.018t-0.768 2.536q0 1.304 0.446 2.179l-1.768 7.464q-0.304 1.25-0.232 3.161-3.679-1.625-5.946-5.018t-2.268-7.554q0-3.732 1.839-6.884t4.991-4.991 6.884-1.839 6.884 1.839 4.991 4.991 1.839 6.884z"></path>
</symbol>
<symbol id="icon-googleplus" viewBox="0 0 30 32">
<path d="M13.125 14.214q0 0.643 0.571 1.259t1.384 1.214 1.616 1.313 1.375 1.857 0.571 2.536q0 1.607-0.857 3.089-1.286 2.179-3.768 3.205t-5.321 1.027q-2.357 0-4.402-0.741t-3.063-2.455q-0.661-1.071-0.661-2.339 0-1.446 0.795-2.679t2.116-2.054q2.339-1.464 7.214-1.786-0.571-0.75-0.848-1.321t-0.277-1.304q0-0.643 0.375-1.518-0.821 0.071-1.214 0.071-2.643 0-4.455-1.723t-1.813-4.366q0-1.464 0.643-2.839t1.768-2.339q1.375-1.179 3.259-1.75t3.884-0.571h7.464l-2.464 1.571h-2.339q1.321 1.125 2 2.375t0.679 2.857q0 1.286-0.438 2.312t-1.054 1.661-1.241 1.161-1.063 1.098-0.438 1.179zM10.518 12.5q0.679 0 1.393-0.295t1.179-0.777q0.946-1.018 0.946-2.839 0-1.036-0.304-2.232t-0.866-2.313-1.509-1.848-2.089-0.732q-0.75 0-1.473 0.348t-1.17 0.938q-0.839 1.054-0.839 2.857 0 0.821 0.179 1.741t0.563 1.839 0.929 1.652 1.339 1.196 1.723 0.464zM10.554 28.089q1.036 0 1.991-0.232t1.768-0.696 1.304-1.304 0.491-1.946q0-0.446-0.125-0.875t-0.259-0.75-0.482-0.741-0.527-0.625-0.688-0.616-0.652-0.518-0.741-0.536-0.652-0.464q-0.286-0.036-0.857-0.036-0.946 0-1.875 0.125t-1.92 0.446-1.732 0.821-1.223 1.33-0.482 1.884q0 1.25 0.625 2.205t1.634 1.482 2.125 0.786 2.277 0.259zM25.018 12.446h3.804v1.929h-3.804v3.911h-1.875v-3.911h-3.786v-1.929h3.786v-3.875h1.875v3.875z"></path>
</symbol>
<symbol id="icon-circle" viewBox="0 0 27 32">
<path d="M27.429 16q0 3.732-1.839 6.884t-4.991 4.991-6.884 1.839-6.884-1.839-4.991-4.991-1.839-6.884 1.839-6.884 4.991-4.991 6.884-1.839 6.884 1.839 4.991 4.991 1.839 6.884z"></path>
</symbol>
<symbol id="icon-code" viewBox="0 0 34 32">
<path d="M11.018 24.982l-0.893 0.893q-0.179 0.179-0.411 0.179t-0.411-0.179l-8.321-8.321q-0.179-0.179-0.179-0.411t0.179-0.411l8.321-8.321q0.179-0.179 0.411-0.179t0.411 0.179l0.893 0.893q0.179 0.179 0.179 0.411t-0.179 0.411l-7.018 7.018 7.018 7.018q0.179 0.179 0.179 0.411t-0.179 0.411zM21.571 5.929l-6.661 23.054q-0.071 0.232-0.277 0.348t-0.42 0.045l-1.107-0.304q-0.232-0.071-0.348-0.277t-0.045-0.438l6.661-23.054q0.071-0.232 0.277-0.348t0.42-0.045l1.107 0.304q0.232 0.071 0.348 0.277t0.045 0.438zM33.304 17.554l-8.321 8.321q-0.179 0.179-0.411 0.179t-0.411-0.179l-0.893-0.893q-0.179-0.179-0.179-0.411t0.179-0.411l7.018-7.018-7.018-7.018q-0.179-0.179-0.179-0.411t0.179-0.411l0.893-0.893q0.179-0.179 0.411-0.179t0.411 0.179l8.321 8.321q0.179 0.179 0.179 0.411t-0.179 0.411z"></path>
</symbol>
<symbol id="icon-youtube" viewBox="0 0 27 32">
<path d="M17.339 22.214v3.768q0 1.196-0.696 1.196-0.411 0-0.804-0.393v-5.375q0.393-0.393 0.804-0.393 0.696 0 0.696 1.196zM23.375 22.232v0.821h-1.607v-0.821q0-1.214 0.804-1.214t0.804 1.214zM6.125 18.339h1.911v-1.679h-5.571v1.679h1.875v10.161h1.786v-10.161zM11.268 28.5h1.589v-8.821h-1.589v6.75q-0.536 0.75-1.018 0.75-0.321 0-0.375-0.375-0.018-0.054-0.018-0.625v-6.5h-1.589v6.982q0 0.875 0.143 1.304 0.214 0.661 1.036 0.661 0.857 0 1.821-1.089v0.964zM18.929 25.857v-3.518q0-1.304-0.161-1.768-0.304-1-1.268-1-0.893 0-1.661 0.964v-3.875h-1.589v11.839h1.589v-0.857q0.804 0.982 1.661 0.982 0.964 0 1.268-0.982 0.161-0.482 0.161-1.786zM24.964 25.679v-0.232h-1.625q0 0.911-0.036 1.089-0.125 0.643-0.714 0.643-0.821 0-0.821-1.232v-1.554h3.196v-1.839q0-1.411-0.482-2.071-0.696-0.911-1.893-0.911-1.214 0-1.911 0.911-0.5 0.661-0.5 2.071v3.089q0 1.411 0.518 2.071 0.696 0.911 1.929 0.911 1.286 0 1.929-0.946 0.321-0.482 0.375-0.964 0.036-0.161 0.036-1.036zM14.107 9.375v-3.75q0-1.232-0.768-1.232t-0.768 1.232v3.75q0 1.25 0.768 1.25t0.768-1.25zM26.946 22.786q0 4.179-0.464 6.25-0.25 1.054-1.036 1.768t-1.821 0.821q-3.286 0.375-9.911 0.375t-9.911-0.375q-1.036-0.107-1.83-0.821t-1.027-1.768q-0.464-2-0.464-6.25 0-4.179 0.464-6.25 0.25-1.054 1.036-1.768t1.839-0.839q3.268-0.357 9.893-0.357t9.911 0.357q1.036 0.125 1.83 0.839t1.027 1.768q0.464 2 0.464 6.25zM9.125 0h1.821l-2.161 7.125v4.839h-1.786v-4.839q-0.25-1.321-1.089-3.786-0.661-1.839-1.161-3.339h1.893l1.268 4.696zM15.732 5.946v3.125q0 1.446-0.5 2.107-0.661 0.911-1.893 0.911-1.196 0-1.875-0.911-0.5-0.679-0.5-2.107v-3.125q0-1.429 0.5-2.089 0.679-0.911 1.875-0.911 1.232 0 1.893 0.911 0.5 0.661 0.5 2.089zM21.714 3.054v8.911h-1.625v-0.982q-0.946 1.107-1.839 1.107-0.821 0-1.054-0.661-0.143-0.429-0.143-1.339v-7.036h1.625v6.554q0 0.589 0.018 0.625 0.054 0.393 0.375 0.393 0.482 0 1.018-0.768v-6.804h1.625z"></path>
</symbol>
<symbol id="icon-stackoverflow" viewBox="0 0 25 32">
<path d="M16.571 25.018v2.696l-12.625 0.018v-2.696zM20.875 18.839v12.518l-0.018 0.625v0.018l-20.857-0.018v-13.143h2.161v11.036h16.571v-11.036h2.143zM4.304 20.411l12.571 1.161-0.232 2.679-12.589-1.161zM5.518 14.768l12.196 3.268-0.696 2.607-12.196-3.268zM8.429 8.536l10.875 6.429-1.375 2.321-10.875-6.429zM14.857 2.625l7.107 10.446-2.214 1.518-7.125-10.429zM22.946 0l2.161 12.446-2.661 0.464-2.161-12.446z"></path>
</symbol>
<symbol id="icon-bitbucket" viewBox="0 0 25 32">
<path d="M14.554 15.339q0.143 1.125-0.902 1.804t-1.991 0.107q-0.696-0.304-0.955-1.036t-0.009-1.464 0.929-1.036q0.643-0.321 1.295-0.214t1.143 0.634 0.491 1.205zM16.536 14.964q-0.25-1.911-2.018-2.929t-3.518-0.232q-1.125 0.5-1.795 1.58t-0.616 2.313q0.071 1.625 1.384 2.768t2.955 1q1.625-0.143 2.714-1.5t0.893-3zM20.804 5.286q-0.357-0.482-1-0.795t-1.036-0.393-1.268-0.223q-5.196-0.839-10.107 0.036-0.768 0.125-1.179 0.214t-0.982 0.393-0.893 0.768q0.536 0.5 1.357 0.813t1.313 0.393 1.563 0.205q4.071 0.518 8 0.018 1.125-0.143 1.598-0.214t1.295-0.384 1.339-0.83zM21.821 23.768q-0.143 0.464-0.277 1.366t-0.25 1.5-0.509 1.25-1.036 1.009q-1.536 0.857-3.384 1.277t-3.607 0.393-3.598-0.33q-0.821-0.143-1.455-0.321t-1.366-0.482-1.304-0.777-0.929-1.098q-0.446-1.714-1.018-5.214l0.107-0.286 0.321-0.161q3.982 2.643 9.045 2.643t9.063-2.643q0.375 0.107 0.429 0.411t-0.089 0.804-0.143 0.661zM25.054 6.607q-0.464 2.982-1.982 11.696-0.089 0.536-0.482 1t-0.777 0.714-0.973 0.554q-4.5 2.25-10.893 1.571-4.429-0.482-7.036-2.482-0.268-0.214-0.455-0.473t-0.304-0.625-0.161-0.607-0.107-0.705-0.098-0.625q-0.161-0.893-0.473-2.679t-0.5-2.884-0.42-2.634-0.393-2.821q0.054-0.464 0.313-0.866t0.563-0.67 0.804-0.536 0.821-0.402 0.857-0.33q2.232-0.821 5.589-1.143 6.768-0.661 12.071 0.893 2.768 0.821 3.839 2.179 0.286 0.357 0.295 0.911t-0.098 0.964z"></path>
</symbol>
<symbol id="icon-tumblr" viewBox="0 0 18 32">
<path d="M16.857 23.732l1.429 4.232q-0.411 0.625-1.982 1.179t-3.161 0.571q-1.857 0.036-3.402-0.464t-2.545-1.321-1.696-1.893-0.991-2.143-0.295-2.107v-9.714h-3v-3.839q1.286-0.464 2.304-1.241t1.625-1.607 1.036-1.821 0.607-1.768 0.268-1.58q0.018-0.089 0.080-0.152t0.134-0.063h4.357v7.571h5.946v4.5h-5.964v9.25q0 0.536 0.116 1t0.402 0.938 0.884 0.741 1.455 0.25q1.393-0.036 2.393-0.518z"></path>
</symbol>
<symbol id="icon-dribbble" viewBox="0 0 27 32">
<path d="M18.286 26.786q-0.75-4.304-2.5-8.893h-0.036l-0.036 0.018q-0.286 0.107-0.768 0.295t-1.804 0.875-2.446 1.464-2.339 2.045-1.839 2.643l-0.268-0.196q3.286 2.679 7.464 2.679 2.357 0 4.571-0.929zM14.982 15.946q-0.375-0.875-0.946-1.982-5.554 1.661-12.018 1.661-0.018 0.125-0.018 0.375 0 2.214 0.786 4.223t2.214 3.598q0.893-1.589 2.205-2.973t2.545-2.223 2.33-1.446 1.777-0.857l0.661-0.232q0.071-0.018 0.232-0.063t0.232-0.080zM13.071 12.161q-2.143-3.804-4.357-6.75-2.464 1.161-4.179 3.321t-2.286 4.857q5.393 0 10.821-1.429zM25.286 17.857q-3.75-1.071-7.304-0.518 1.554 4.268 2.286 8.375 1.982-1.339 3.304-3.384t1.714-4.473zM10.911 4.625q-0.018 0-0.036 0.018 0.018-0.018 0.036-0.018zM21.446 7.214q-3.304-2.929-7.732-2.929-1.357 0-2.768 0.339 2.339 3.036 4.393 6.821 1.232-0.464 2.321-1.080t1.723-1.098 1.17-1.018 0.67-0.723zM25.429 15.875q-0.054-4.143-2.661-7.321l-0.018 0.018q-0.161 0.214-0.339 0.438t-0.777 0.795-1.268 1.080-1.786 1.161-2.348 1.152q0.446 0.946 0.786 1.696 0.036 0.107 0.116 0.313t0.134 0.295q0.643-0.089 1.33-0.125t1.313-0.036 1.232 0.027 1.143 0.071 1.009 0.098 0.857 0.116 0.652 0.107 0.446 0.080zM27.429 16q0 3.732-1.839 6.884t-4.991 4.991-6.884 1.839-6.884-1.839-4.991-4.991-1.839-6.884 1.839-6.884 4.991-4.991 6.884-1.839 6.884 1.839 4.991 4.991 1.839 6.884z"></path>
</symbol>
<symbol id="icon-skype" viewBox="0 0 27 32">
<path d="M20.946 18.982q0-0.893-0.348-1.634t-0.866-1.223-1.304-0.875-1.473-0.607-1.563-0.411l-1.857-0.429q-0.536-0.125-0.786-0.188t-0.625-0.205-0.536-0.286-0.295-0.375-0.134-0.536q0-1.375 2.571-1.375 0.768 0 1.375 0.214t0.964 0.509 0.679 0.598 0.714 0.518 0.857 0.214q0.839 0 1.348-0.571t0.509-1.375q0-0.982-1-1.777t-2.536-1.205-3.25-0.411q-1.214 0-2.357 0.277t-2.134 0.839-1.589 1.554-0.598 2.295q0 1.089 0.339 1.902t1 1.348 1.429 0.866 1.839 0.58l2.607 0.643q1.607 0.393 2 0.643 0.571 0.357 0.571 1.071 0 0.696-0.714 1.152t-1.875 0.455q-0.911 0-1.634-0.286t-1.161-0.688-0.813-0.804-0.821-0.688-0.964-0.286q-0.893 0-1.348 0.536t-0.455 1.339q0 1.643 2.179 2.813t5.196 1.17q1.304 0 2.5-0.33t2.188-0.955 1.58-1.67 0.589-2.348zM27.429 22.857q0 2.839-2.009 4.848t-4.848 2.009q-2.321 0-4.179-1.429-1.375 0.286-2.679 0.286-2.554 0-4.884-0.991t-4.018-2.679-2.679-4.018-0.991-4.884q0-1.304 0.286-2.679-1.429-1.857-1.429-4.179 0-2.839 2.009-4.848t4.848-2.009q2.321 0 4.179 1.429 1.375-0.286 2.679-0.286 2.554 0 4.884 0.991t4.018 2.679 2.679 4.018 0.991 4.884q0 1.304-0.286 2.679 1.429 1.857 1.429 4.179z"></path>
</symbol>
<symbol id="icon-foursquare" viewBox="0 0 23 32">
<path d="M17.857 7.75l0.661-3.464q0.089-0.411-0.161-0.714t-0.625-0.304h-12.714q-0.411 0-0.688 0.304t-0.277 0.661v19.661q0 0.125 0.107 0.018l5.196-6.286q0.411-0.464 0.679-0.598t0.857-0.134h4.268q0.393 0 0.661-0.259t0.321-0.527q0.429-2.321 0.661-3.411 0.071-0.375-0.205-0.714t-0.652-0.339h-5.25q-0.518 0-0.857-0.339t-0.339-0.857v-0.75q0-0.518 0.339-0.848t0.857-0.33h6.179q0.321 0 0.625-0.241t0.357-0.527zM21.911 3.786q-0.268 1.304-0.955 4.759t-1.241 6.25-0.625 3.098q-0.107 0.393-0.161 0.58t-0.25 0.58-0.438 0.589-0.688 0.375-1.036 0.179h-4.839q-0.232 0-0.393 0.179-0.143 0.161-7.607 8.821-0.393 0.446-1.045 0.509t-0.866-0.098q-0.982-0.393-0.982-1.75v-25.179q0-0.982 0.679-1.83t2.143-0.848h15.857q1.696 0 2.268 0.946t0.179 2.839zM21.911 3.786l-2.821 14.107q0.071-0.304 0.625-3.098t1.241-6.25 0.955-4.759z"></path>
</symbol>
<symbol id="icon-gittip" viewBox="0 0 27 32">
<path d="M13.804 23.25l6.25-8.446q0.286-0.393 0.438-1.054t-0.107-1.518-1.098-1.411q-0.714-0.464-1.482-0.455t-1.313 0.313-0.973 0.804q-0.643 0.714-1.714 0.714-1.054 0-1.696-0.714-0.429-0.5-0.973-0.804t-1.313-0.313-1.5 0.455q-0.821 0.554-1.080 1.411t-0.107 1.518 0.438 1.054zM27.429 16q0 3.732-1.839 6.884t-4.991 4.991-6.884 1.839-6.884-1.839-4.991-4.991-1.839-6.884 1.839-6.884 4.991-4.991 6.884-1.839 6.884 1.839 4.991 4.991 1.839 6.884z"></path>
</symbol>
<symbol id="icon-stackexchange" viewBox="0 0 23 32">
<path d="M22.482 22.375v1.179q0 1.518-1.027 2.58t-2.473 1.063h-1.018l-4.643 4.804v-4.804h-9.446q-1.446 0-2.473-1.063t-1.027-2.58v-1.179h22.107zM22.482 16.554v4.554h-22.107v-4.554h22.107zM22.482 10.696v4.554h-22.107v-4.554h22.107zM22.482 8.196v1.196h-22.107v-1.196q0-1.5 1.027-2.563t2.473-1.063h15.107q1.446 0 2.473 1.063t1.027 2.563z"></path>
</symbol>
<symbol id="icon-vimeo" viewBox="0 0 27 32">
<path d="M23.071 11.393q0.179-3.857-2.875-3.964-4.125-0.143-5.571 4.661 0.786-0.339 1.464-0.339 1.518 0 1.321 1.714-0.071 1.018-1.321 2.982t-1.875 1.964q-0.768 0-1.464-3.018-0.232-0.964-0.804-4.554-0.536-3.375-2.857-3.161-1.054 0.125-2.929 1.786l-2.893 2.571 0.929 1.196q1.357-0.929 1.554-0.929 1.018 0 1.911 3.196 0.268 0.982 0.804 2.938t0.804 2.938q1.214 3.196 2.929 3.196 2.804 0 6.839-5.25 3.929-5.054 4.036-7.929zM27.429 7.429v17.143q0 2.125-1.509 3.634t-3.634 1.509h-17.143q-2.125 0-3.634-1.509t-1.509-3.634v-17.143q0-2.125 1.509-3.634t3.634-1.509h17.143q2.125 0 3.634 1.509t1.509 3.634z"></path>
</symbol>
<symbol id="icon-graduation-cap" viewBox="0 0 41 32">
<path d="M31.679 14.929l0.321 5.643q0.071 1.232-1.464 2.286t-4.196 1.67-5.768 0.616-5.768-0.616-4.196-1.67-1.464-2.286l0.321-5.643 10.25 3.232q0.393 0.125 0.857 0.125t0.857-0.125zM41.143 9.143q0 0.411-0.393 0.554l-20 6.286q-0.071 0.018-0.179 0.018t-0.179-0.018l-11.643-3.679q-0.768 0.607-1.268 1.991t-0.607 3.188q1.125 0.643 1.125 1.946 0 1.232-1.036 1.911l1.036 7.732q0.036 0.25-0.143 0.446-0.161 0.196-0.429 0.196h-3.429q-0.268 0-0.429-0.196-0.179-0.196-0.143-0.446l1.036-7.732q-1.036-0.679-1.036-1.911 0-1.304 1.161-1.982 0.196-3.696 1.75-5.893l-5.946-1.857q-0.393-0.143-0.393-0.554t0.393-0.554l20-6.286q0.071-0.018 0.179-0.018t0.179 0.018l20 6.286q0.393 0.143 0.393 0.554z"></path>
</symbol>
<symbol id="icon-language" viewBox="0 0 27 32">
<path d="M11.679 19.25q-0.018 0.054-0.223-0.009t-0.563-0.205l-0.357-0.161q-0.786-0.357-1.554-0.875-0.125-0.089-0.732-0.563t-0.679-0.509q-1.196 1.839-2.393 3.232-1.446 1.696-1.875 1.964-0.071 0.036-0.348 0.071t-0.33 0q0.107-0.071 1.464-1.643 0.375-0.429 1.527-2.054t1.402-2.107q0.304-0.536 0.911-1.759t0.643-1.384q-0.143-0.018-1.964 0.589-0.143 0.036-0.491 0.134t-0.616 0.17-0.304 0.089q-0.036 0.036-0.036 0.188t-0.018 0.17q-0.089 0.179-0.554 0.268-0.411 0.125-0.839 0-0.321-0.071-0.5-0.375-0.071-0.107-0.089-0.411 0.107-0.036 0.438-0.089t0.527-0.107q1.036-0.286 1.875-0.571 1.786-0.625 1.821-0.625 0.179-0.036 0.768-0.348t0.786-0.384q0.161-0.054 0.384-0.143t0.259-0.098 0.107 0.009q0.036 0.214-0.018 0.589 0 0.036-0.223 0.482t-0.473 0.955-0.304 0.598q-0.446 0.893-1.375 2.339l1.143 0.5q0.214 0.107 1.33 0.571t1.205 0.5q0.071 0.018 0.188 0.455t0.080 0.545zM8.018 10.571q0.054 0.268-0.071 0.5-0.214 0.411-0.893 0.679-0.536 0.214-1.071 0.214-0.464-0.054-0.875-0.464-0.25-0.268-0.321-0.732l0.018-0.054q0.054 0.054 0.348 0.089t0.473 0 1.036-0.286q0.643-0.214 0.982-0.25 0.304 0 0.375 0.304zM20.482 12.875l1.125 4.054-2.482-0.75zM0.696 27.161l12.393-4.143v-18.429l-12.393 4.161v18.411zM22.857 21.5l1.821 0.554-3.232-11.732-1.786-0.554-3.857 9.571 1.821 0.554 0.804-1.964 3.768 1.161zM13.875 4.321l10.232 3.286v-6.786zM19.429 27.946l2.821 0.232-0.964 2.857-0.714-1.179q-2.321 1.482-4.929 1.929-1.036 0.214-1.625 0.214h-1.5q-1.411 0-3.563-0.696t-3.277-1.518q-0.143-0.125-0.143-0.286 0-0.143 0.089-0.241t0.232-0.098q0.071 0 0.321 0.134t0.545 0.295 0.366 0.196q1.304 0.661 2.848 1.098t2.813 0.438q1.696 0 2.982-0.259t2.804-0.902q0.268-0.125 0.545-0.277t0.607-0.339 0.509-0.295zM27.429 8.679v19.268l-13.821-4.393q-0.25 0.107-6.696 2.277t-6.571 2.17q-0.232 0-0.321-0.232 0-0.018-0.018-0.054v-19.25q0.054-0.161 0.071-0.179 0.089-0.107 0.357-0.196 1.893-0.625 2.661-0.893v-6.857l9.964 3.536q0.036 0 2.866-0.982t5.643-1.938 2.884-0.955q0.357 0 0.357 0.375v7.464z"></path>
</symbol>
<symbol id="icon-child" viewBox="0 0 23 32">
<path d="M21.214 9.786l-5.214 5.214v14.714q0 0.821-0.589 1.411t-1.411 0.589-1.411-0.589-0.589-1.411v-6.857h-1.143v6.857q0 0.821-0.589 1.411t-1.411 0.589-1.411-0.589-0.589-1.411v-14.714l-5.214-5.214q-0.5-0.5-0.5-1.214t0.5-1.214 1.214-0.5 1.214 0.5l4.071 4.071h6.571l4.071-4.071q0.5-0.5 1.214-0.5t1.214 0.5 0.5 1.214-0.5 1.214zM15.429 6.857q0 1.661-1.17 2.83t-2.83 1.17-2.83-1.17-1.17-2.83 1.17-2.83 2.83-1.17 2.83 1.17 1.17 2.83z"></path>
</symbol>
<symbol id="icon-behance" viewBox="0 0 27 32">
<path d="M22.286 2.286q2.125 0 3.634 1.509t1.509 3.634v17.143q0 2.125-1.509 3.634t-3.634 1.509h-17.143q-2.125 0-3.634-1.509t-1.509-3.634v-17.143q0-2.125 1.509-3.634t3.634-1.509h17.143zM8.911 8.839h-6.625v14.054h6.821q2.089 0 3.518-1.027t1.429-3.045q0-2.821-2.554-3.571 1.911-0.929 1.911-2.929 0-1.018-0.348-1.723t-1.009-1.080-1.411-0.527-1.732-0.152zM8.518 14.518h-3.143v-3.286h2.911q2.125 0 2.125 1.607 0 1.679-1.893 1.679zM8.679 20.5h-3.304v-3.875h3.375q2.214 0 2.214 2.018 0 1.857-2.286 1.857zM20.286 21.071q-1.214 0-1.857-0.679t-0.643-1.911h7.339q0.018-0.179 0.018-0.536 0-2.357-1.33-3.938t-3.634-1.58q-2.286 0-3.75 1.536t-1.464 3.857q0 2.411 1.411 3.875t3.804 1.464q3.661 0 4.768-3.411h-2.464q-0.196 0.607-0.848 0.964t-1.348 0.357zM20.107 14.536q2.018 0 2.214 2.179h-4.536q0.071-1 0.696-1.589t1.625-0.589zM17.214 9.786h5.696v1.375h-5.696v-1.375z"></path>
</symbol>
<symbol id="icon-spotify" viewBox="0 0 27 32">
<path d="M20.125 21.607q0-0.571-0.536-0.911-3.446-2.054-7.982-2.054-2.375 0-5.125 0.607-0.75 0.161-0.75 0.929 0 0.357 0.241 0.616t0.634 0.259q0.089 0 0.661-0.143 2.357-0.482 4.339-0.482 4.036 0 7.089 1.839 0.339 0.196 0.589 0.196 0.339 0 0.589-0.241t0.25-0.616zM21.839 17.768q0-0.714-0.625-1.089-4.232-2.518-9.786-2.518-2.732 0-5.411 0.75-0.857 0.232-0.857 1.143 0 0.446 0.313 0.759t0.759 0.313q0.125 0 0.661-0.143 2.179-0.589 4.482-0.589 4.982 0 8.714 2.214 0.429 0.232 0.679 0.232 0.446 0 0.759-0.313t0.313-0.759zM23.768 13.339q0-0.839-0.714-1.25-2.25-1.304-5.232-1.973t-6.125-0.67q-3.643 0-6.5 0.839-0.411 0.125-0.688 0.455t-0.277 0.866q0 0.554 0.366 0.929t0.92 0.375q0.196 0 0.714-0.143 2.375-0.661 5.482-0.661 2.839 0 5.527 0.607t4.527 1.696q0.375 0.214 0.714 0.214 0.518 0 0.902-0.366t0.384-0.92zM27.429 16q0 3.732-1.839 6.884t-4.991 4.991-6.884 1.839-6.884-1.839-4.991-4.991-1.839-6.884 1.839-6.884 4.991-4.991 6.884-1.839 6.884 1.839 4.991 4.991 1.839 6.884z"></path>
</symbol>
<symbol id="icon-soundcloud" viewBox="0 0 41 32">
<path d="M14 24.5l0.286-4.304-0.286-9.339q-0.018-0.179-0.134-0.304t-0.295-0.125q-0.161 0-0.286 0.125t-0.125 0.304l-0.25 9.339 0.25 4.304q0.018 0.179 0.134 0.295t0.277 0.116q0.393 0 0.429-0.411zM19.286 23.982l0.196-3.768-0.214-10.464q0-0.286-0.232-0.429-0.143-0.089-0.286-0.089t-0.286 0.089q-0.232 0.143-0.232 0.429l-0.018 0.107-0.179 10.339q0 0.018 0.196 4.214v0.018q0 0.179 0.107 0.304 0.161 0.196 0.411 0.196 0.196 0 0.357-0.161 0.161-0.125 0.161-0.357zM0.625 17.911l0.357 2.286-0.357 2.25q-0.036 0.161-0.161 0.161t-0.161-0.161l-0.304-2.25 0.304-2.286q0.036-0.161 0.161-0.161t0.161 0.161zM2.161 16.5l0.464 3.696-0.464 3.625q-0.036 0.161-0.179 0.161-0.161 0-0.161-0.179l-0.411-3.607 0.411-3.696q0-0.161 0.161-0.161 0.143 0 0.179 0.161zM3.804 15.821l0.446 4.375-0.446 4.232q0 0.196-0.196 0.196-0.179 0-0.214-0.196l-0.375-4.232 0.375-4.375q0.036-0.214 0.214-0.214 0.196 0 0.196 0.214zM5.482 15.696l0.411 4.5-0.411 4.357q-0.036 0.232-0.25 0.232-0.232 0-0.232-0.232l-0.375-4.357 0.375-4.5q0-0.232 0.232-0.232 0.214 0 0.25 0.232zM7.161 16.018l0.375 4.179-0.375 4.393q-0.036 0.286-0.286 0.286-0.107 0-0.188-0.080t-0.080-0.205l-0.357-4.393 0.357-4.179q0-0.107 0.080-0.188t0.188-0.080q0.25 0 0.286 0.268zM8.839 13.411l0.375 6.786-0.375 4.393q0 0.125-0.089 0.223t-0.214 0.098q-0.286 0-0.321-0.321l-0.321-4.393 0.321-6.786q0.036-0.321 0.321-0.321 0.125 0 0.214 0.098t0.089 0.223zM10.518 11.875l0.339 8.357-0.339 4.357q0 0.143-0.098 0.241t-0.241 0.098q-0.321 0-0.357-0.339l-0.286-4.357 0.286-8.357q0.036-0.339 0.357-0.339 0.143 0 0.241 0.098t0.098 0.241zM12.268 11.161l0.321 9.036-0.321 4.321q-0.036 0.375-0.393 0.375-0.339 0-0.375-0.375l-0.286-4.321 0.286-9.036q0-0.161 0.116-0.277t0.259-0.116q0.161 0 0.268 0.116t0.125 0.277zM19.268 24.411v0 0zM15.732 11.089l0.268 9.107-0.268 4.268q0 0.179-0.134 0.313t-0.313 0.134-0.304-0.125-0.143-0.321l-0.25-4.268 0.25-9.107q0-0.196 0.134-0.321t0.313-0.125 0.313 0.125 0.134 0.321zM17.5 11.429l0.25 8.786-0.25 4.214q0 0.196-0.143 0.339t-0.339 0.143-0.339-0.143-0.161-0.339l-0.214-4.214 0.214-8.786q0.018-0.214 0.161-0.357t0.339-0.143 0.33 0.143 0.152 0.357zM21.286 20.214l-0.25 4.125q0 0.232-0.161 0.393t-0.393 0.161-0.393-0.161-0.179-0.393l-0.107-2.036-0.107-2.089 0.214-11.357v-0.054q0.036-0.268 0.214-0.429 0.161-0.125 0.357-0.125 0.143 0 0.268 0.089 0.25 0.143 0.286 0.464zM41.143 19.875q0 2.089-1.482 3.563t-3.571 1.473h-14.036q-0.232-0.036-0.393-0.196t-0.161-0.393v-16.054q0-0.411 0.5-0.589 1.518-0.607 3.232-0.607 3.482 0 6.036 2.348t2.857 5.777q0.946-0.393 1.964-0.393 2.089 0 3.571 1.482t1.482 3.589z"></path>
</symbol>
<symbol id="icon-codepen" viewBox="0 0 32 32">
<path d="M3.857 20.875l10.768 7.179v-6.411l-5.964-3.982zM2.75 18.304l3.446-2.304-3.446-2.304v4.607zM17.375 28.054l10.768-7.179-4.804-3.214-5.964 3.982v6.411zM16 19.25l4.857-3.25-4.857-3.25-4.857 3.25zM8.661 14.339l5.964-3.982v-6.411l-10.768 7.179zM25.804 16l3.446 2.304v-4.607zM23.339 14.339l4.804-3.214-10.768-7.179v6.411zM32 11.125v9.75q0 0.732-0.607 1.143l-14.625 9.75q-0.375 0.232-0.768 0.232t-0.768-0.232l-14.625-9.75q-0.607-0.411-0.607-1.143v-9.75q0-0.732 0.607-1.143l14.625-9.75q0.375-0.232 0.768-0.232t0.768 0.232l14.625 9.75q0.607 0.411 0.607 1.143z"></path>
</symbol>
<symbol id="icon-hackernews" viewBox="0 0 27 32">
<path d="M14.446 17.929l4.75-8.911h-2l-2.804 5.571q-0.429 0.857-0.786 1.643l-0.75-1.643-2.768-5.571h-2.143l4.696 8.804v5.786h1.804v-5.679zM27.429 7.429v17.143q0 2.125-1.509 3.634t-3.634 1.509h-17.143q-2.125 0-3.634-1.509t-1.509-3.634v-17.143q0-2.125 1.509-3.634t3.634-1.509h17.143q2.125 0 3.634 1.509t1.509 3.634z"></path>
</symbol>
<symbol id="icon-lastfm" viewBox="0 0 32 32">
<path d="M23.071 12.571q0 0.107 0.179 0.732 0.179 0.518 0.446 0.884t0.732 0.607 0.786 0.357 0.982 0.295q5.804 1.625 5.804 5.929 0 2.607-1.884 4.33t-4.545 1.723q-1.054 0-1.991-0.33t-1.634-0.813-1.375-1.33-1.125-1.563-0.955-1.848-0.777-1.839-0.705-1.902-0.634-1.696q-0.571-1.446-1.098-2.384t-1.313-1.723-1.857-1.143-2.536-0.357q-1.714 0-3.268 0.991t-2.464 2.58-0.911 3.304q0 2.857 1.902 4.991t4.705 2.134q3.161 0 4.607-1.696 1-1.125 1.482-2.071l1.5 2.714q-0.268 0.607-0.786 1.25l0.018 0.018q-2.339 2.714-6.929 2.714-2.625 0-4.813-1.411t-3.402-3.705-1.214-4.902q0-1.875 0.777-3.679t2.071-3.152 3.071-2.17 3.652-0.821q1.554 0 2.839 0.339t2.205 0.893 1.696 1.429 1.295 1.768 1.045 2.089 0.902 2.223 0.893 2.33 0.982 2.268q1.714 3.571 4.161 3.571 1.446 0 2.473-0.866t1.027-2.295q0-0.75-0.339-1.286t-0.902-0.821-1.295-0.563-1.509-0.482-1.563-0.607-1.446-0.929-1.161-1.464-0.696-2.188q-0.054-0.286-0.054-0.589 0-1.964 1.563-3.429t3.545-1.393q1.393 0.054 2.152 0.259t1.616 0.955h-0.018q0.214 0.196 0.411 0.438t0.464 0.643 0.339 0.491l-2.304 1.768q-0.464-0.875-0.964-1.25v-0.018q-0.411-0.375-1.732-0.375-0.875 0-1.5 0.589t-0.625 1.482z"></path>
</symbol>
<symbol id="icon-angellist" viewBox="0 0 23 32">
<path d="M17.018 6.75l-2.036 5.857 2.089 0.375q2.946-8.054 2.946-9.25 0-1-0.679-1-1.018 0-2.321 4.018zM11.679 19.018l0.589 1.571q0.661-0.75 1.268-1.196l-0.589-0.098t-0.688-0.125-0.58-0.152zM6.464 3.018q0 1.75 2.839 9.304 0.321-0.179 0.875-0.179 0.268 0 1.339 0.089l-2.161-6.268q-1.339-3.929-2.196-3.929-0.339 0-0.518 0.313t-0.179 0.67zM5.054 16.571q0 0.643 0.92 2.125t2.098 2.732 1.786 1.25q0.25 0 0.455-0.232t0.205-0.482q0-0.429-0.571-1.821-0.232-0.571-0.571-1.286t-0.848-1.589-1.098-1.446-1.107-0.571q-0.357 0-0.813 0.482t-0.455 0.839zM2.232 22.554q0 0.732 0.446 1.857 1.054 2.589 3.277 4.054t5.027 1.464q4.054 0 6.821-3.036 2.714-3.018 2.714-7.625 0-0.768-0.018-1.196t-0.205-1.107-0.545-1q-1-0.875-3.777-1.348t-4.83-0.473q-0.661 0-0.875 0.196-0.214 0.089-0.214 0.625 0 0.607 0.384 1.071t0.991 0.714 1.384 0.42 1.563 0.205 1.518 0.071 1.25 0h0.411q0.429 0 0.714 0.339 0.268 0.339 0.339 0.982-0.5 0.5-1.714 0.964-1.089 0.393-1.661 0.821-1.143 0.821-1.938 2.036t-0.795 2.446q0 0.554 0.33 1.58t0.33 1.563l-0.054 0.214q-0.071 0.214-0.071 0.25-2.446-0.179-2.607-3.857-0.143 0.036-0.732 0.036 0.036 0.125 0.036 0.375 0 0.946-0.723 1.598t-1.688 0.652q-1.464 0-2.973-1.393t-1.509-2.839q0-0.607 0.589-1.196 0.929 1.143 1.071 1.357 1.375 1.857 2.375 1.857 0.214 0 0.473-0.152t0.259-0.366q0-0.607-1.563-2.589t-2.080-1.982q-0.768 0-1.25 0.795t-0.482 1.616zM0.196 22.714q0-1.804 0.759-2.911t2.438-1.571q-0.5-1.321-0.5-1.857 0-1.107 1.089-2.196t2.179-1.089q0.518 0 1.25 0.268-2.911-8.25-2.911-10.125 0-1.429 0.732-2.33t2.125-0.902q2.339 0 5.804 10.375 0.107 0.304 0.143 0.411 0.107-0.286 0.518-1.42t0.777-2.116 0.964-2.277 1.152-2.196 1.259-1.545 1.366-0.643q1.268 0 2 0.875t0.732 2.179q0 1.929-2.839 9.821 1.089 0.268 1.795 0.821t1.045 1.393 0.464 1.67 0.125 1.973q0 2.679-0.839 5t-2.357 4.018-3.768 2.679-4.964 0.982q-1.982 0-3.982-0.75-2.661-1.018-4.607-3.42t-1.946-5.116z"></path>
</symbol>
<symbol id="icon-facebook" viewBox="0 0 27 32">
<path d="M25.911 2.286q0.625 0 1.071 0.446t0.446 1.071v24.393q0 0.625-0.446 1.071t-1.071 0.446h-6.982v-10.625h3.554l0.536-4.143h-4.089v-2.643q0-1 0.42-1.5t1.634-0.5l2.179-0.018v-3.696q-1.125-0.161-3.179-0.161-2.429 0-3.884 1.429t-1.455 4.036v3.054h-3.571v4.143h3.571v10.625h-13.125q-0.625 0-1.071-0.446t-0.446-1.071v-24.393q0-0.625 0.446-1.071t1.071-0.446h24.393z"></path>
</symbol>
<symbol id="icon-gitlab" viewBox="0 0 32 32">
<path fill="#fc6d26" style="fill: var(--color1, #fc6d26)" d="M31.693 17.934l-5.259-16.186c-0.18-0.553-0.963-0.553-1.143 0l-3.496 10.758h-11.607l-3.496-10.758c-0.18-0.553-0.963-0.553-1.143 0l-5.259 16.186c-0.037 0.111-0.059 0.239-0.059 0.371 0 0.398 0.194 0.751 0.492 0.97l0.003 0.002 15.265 11.091 15.265-11.091c0.302-0.221 0.495-0.574 0.495-0.972 0-0.133-0.022-0.26-0.061-0.38l0.002 0.008z"></path>
<path fill="#e24329" style="fill: var(--color2, #e24329)" d="M15.991 30.368l5.804-17.862h-11.608l5.804 17.862z"></path>
<path fill="#fc6d26" style="fill: var(--color1, #fc6d26)" d="M15.991 30.368l-5.804-17.862h-8.134l13.938 17.862z"></path>
<path fill="#fca326" style="fill: var(--color3, #fca326)" d="M2.054 12.506l-1.764 5.428c-0.037 0.111-0.059 0.239-0.059 0.371 0 0.398 0.194 0.751 0.492 0.97l0.003 0.002 15.265 11.091-13.938-17.862z"></path>
<path fill="#e24329" style="fill: var(--color2, #e24329)" d="M2.054 12.506h8.134l-3.496-10.758c-0.18-0.554-0.963-0.554-1.143 0l-3.495 10.758z"></path>
<path fill="#fc6d26" style="fill: var(--color1, #fc6d26)" d="M15.991 30.368l5.804-17.862h8.134l-13.938 17.862z"></path>
<path fill="#fca326" style="fill: var(--color3, #fca326)" d="M29.929 12.506l1.764 5.428c0.037 0.111 0.059 0.239 0.059 0.371 0 0.398-0.194 0.751-0.492 0.97l-0.003 0.002-15.265 11.091 13.938-17.862z"></path>
<path fill="#e24329" style="fill: var(--color2, #e24329)" d="M29.929 12.506h-8.134l3.496-10.758c0.18-0.554 0.963-0.554 1.143 0l3.495 10.758z"></path>
</symbol>
<symbol id="icon-meetup" viewBox="0 0 48 32">
<path fill="#fff" style="fill: var(--color4, #fff)" d="M0.222 8.068h47.322v20.542h-47.322v-20.542z"></path>
<path fill="#f00101" style="fill: var(--color5, #f00101)" d="M1.962 31.789c-0.641-0.246-1.383-0.95-1.717-1.627l-0.245-0.497v-27.329l0.245-0.497c0.344-0.697 1.075-1.381 1.745-1.632l0.551-0.206h42.917l0.569 0.213c0.684 0.256 1.438 0.965 1.755 1.652l0.217 0.47v27.329l-0.217 0.47c-0.317 0.686-1.071 1.396-1.755 1.652l-0.569 0.213-21.487-0.005c-21.316-0.005-21.491-0.007-22.010-0.206zM47.453 18.137v-9.59h-46.907v19.18h46.907v-9.59zM37.728 26.335c-0.191-0.142-0.525-1.968-0.662-3.625-0.067-0.807-0.102-0.918-0.359-1.158-0.408-0.382-0.339-0.882 0.122-0.882 0.174 0 0.277-0.336 0.35-1.143 0.098-1.078 0.55-2.766 0.956-3.572 0.49-0.973 1.749-2.043 2.404-2.043 0.215 0 0.791 0.188 1.498 0.487 0.109 0.046 0.324 0.135 0.478 0.196 0.36 0.145 0.732 0.942 0.818 1.753 0.076 0.719-0.083 1.676-0.394 2.371-0.48 1.073-2.518 2.892-3.529 3.151l-0.503 0.129 0.003 0.95c0.004 1.179 0.145 2.3 0.359 2.862 0.090 0.235 0.131 0.461 0.091 0.5-0.081 0.081-1.527 0.101-1.632 0.023v0zM39.942 19.572c0.406-0.386 0.852-0.918 0.991-1.184 0.306-0.585 0.476-1.556 0.394-2.252-0.093-0.793-0.18-0.85-0.591-0.386-0.679 0.767-1.087 1.664-1.398 3.076-0.278 1.259-0.306 1.446-0.219 1.446 0.047-0 0.418-0.316 0.824-0.701zM27.399 21.008c-0.064-1.013-0.138-1.877-0.165-1.92s-0.395-0.11-0.819-0.149c-0.871-0.079-1.024-0.163-1.024-0.561 0-0.445 0.319-0.603 1.066-0.527l0.623 0.064-0.004-0.386c-0.002-0.213-0.047-0.722-0.099-1.132-0.382-3.002-0.454-5.132-0.195-5.813 0.079-0.209 0.159-0.249 0.498-0.249 0.39 0 1.306 0.379 1.439 0.595 0.035 0.056 0.085 1.32 0.113 2.809 0.064 3.487 0.065 3.253-0.015 3.627-0.062 0.287-0.045 0.323 0.148 0.323 0.178 0 0.211-0.049 0.185-0.273-0.027-0.232 0.008-0.278 0.233-0.304 0.21-0.024 0.401 0.098 0.919 0.592 0.36 0.343 0.654 0.675 0.654 0.74 0 0.142-0.352 0.222-1.76 0.397l-0.418 0.052 0.049 1.87c0.056 2.122 0.114 1.976-0.81 2.047l-0.503 0.039-0.116-1.841zM12.831 22.601c-0.033-0.086-0.061-0.232-0.063-0.323s-0.117-0.434-0.257-0.762c-0.284-0.665-0.775-2.221-0.942-2.981-0.187-0.853-0.405-1.557-0.463-1.499-0.031 0.031-0.093 0.94-0.137 2.020s-0.14 2.165-0.211 2.411l-0.131 0.447-1.963 0.182-0.22-0.276c-0.121-0.152-0.501-0.741-0.844-1.31s-0.636-1.021-0.651-1.006c-0.015 0.015 0.033 0.467 0.108 1.003s0.114 1.033 0.087 1.104c-0.087 0.227-1.070 0.586-1.568 0.572-0.459-0.013-0.557-0.204-0.704-1.371-0.246-1.954-0.273-2.523-0.201-4.206l0.071-1.663 0.438-0.117c0.705-0.188 1.488-0.152 1.703 0.079 0.1 0.108 0.581 0.968 1.068 1.913l0.885 1.717 0.125-0.944c0.189-1.423 0.834-3.565 1.278-4.242 0.166-0.253 0.182-0.256 1.021-0.192 1.002 0.077 1.151 0.176 1.353 0.896 0.449 1.606 0.602 2.251 1.054 4.445 0.109 0.526 0.264 1.147 0.346 1.379s0.149 0.504 0.149 0.605 0.112 0.526 0.248 0.944c0.251 0.77 0.302 1.021 0.183 0.902-0.036-0.036-0.126-0.015-0.199 0.045-0.106 0.088-1.153 0.365-1.439 0.381-0.035 0.002-0.091-0.067-0.124-0.154v0zM16.814 22.549c-0.472-0.111-0.677-0.22-1.346-0.713-0.77-0.567-0.892-0.906-0.905-2.507-0.014-1.622 0.047-2.208 0.32-3.072 0.25-0.792 0.795-1.46 1.699-2.082 0.614-0.422 0.669-0.425 1.882-0.093 0.461 0.126 0.607 0.218 0.73 0.455 0.316 0.61 0.419 3.984 0.136 4.441-0.098 0.159-1.601 0.168-2.287 0.014-0.213-0.048-0.413-0.063-0.443-0.033s-0.054 0.371-0.052 0.758c0.003 0.835 0.215 1.38 0.697 1.785 0.294 0.247 0.38 0.27 0.784 0.21 0.25-0.037 0.569-0.135 0.709-0.218 0.345-0.203 1.262-0.023 1.575 0.309l0.217 0.231-0.526 0.2c-0.966 0.367-2.377 0.506-3.191 0.314v0zM17.441 16.894c0-0.547-0.040-0.994-0.088-0.994-0.103 0-0.49 0.919-0.608 1.442-0.071 0.316-0.055 0.371 0.133 0.447 0.538 0.217 0.563 0.178 0.563-0.895zM23.155 22.392c-1.472-0.187-2.001-0.463-2.609-1.36-0.45-0.664-0.475-0.736-0.529-1.548-0.047-0.7-0.016-1.010 0.175-1.745 0.571-2.197 0.765-2.586 1.86-3.726 0.499-0.519 0.622-0.597 0.938-0.595 0.2 0.001 0.558 0.091 0.797 0.199s0.487 0.197 0.553 0.197 0.223 0.097 0.35 0.215c0.224 0.208 0.228 0.249 0.161 1.315-0.038 0.605-0.11 1.149-0.16 1.209s-0.103 0.693-0.117 1.408l-0.027 1.299-0.56 0.157c-0.494 0.138-0.645 0.14-1.29 0.017-0.848-0.162-0.913-0.123-0.85 0.514 0.051 0.512 0.58 1.372 0.969 1.573 0.551 0.285 1.675 0.1 1.951-0.321 0.184-0.281 0.377-0.289 0.799-0.032 0.416 0.254 0.439 0.611 0.050 0.792-0.95 0.441-1.557 0.548-2.46 0.433v0zM22.944 18.162c0.033-0.123 0.059-0.716 0.057-1.317-0.003-1.048-0.009-1.081-0.158-0.807-0.191 0.353-0.731 1.897-0.731 2.090 0 0.166 0.149 0.238 0.51 0.249 0.191 0.006 0.278-0.052 0.322-0.216v0zM32.283 22.214c-0.512-0.359-0.939-1.863-1.116-3.933-0.097-1.138-0.083-1.687 0.049-1.901 0.094-0.151 0.627-0.083 1.104 0.142 0.883 0.416 0.856 0.348 0.942 2.388 0.087 2.066 0.14 2.486 0.307 2.431 0.22-0.073 1.029-1.375 1.151-1.854 0.070-0.274 0.113-0.968 0.101-1.63-0.029-1.596 0.078-1.697 1.231-1.163 0.92 0.426 0.926 0.439 0.787 1.544-0.125 0.992-0.257 1.392-0.542 1.652-0.098 0.089-0.282 0.358-0.408 0.596s-0.289 0.433-0.362 0.433c-0.073 0-0.151 0.067-0.173 0.149-0.036 0.133-0.029 0.133 0.065 0 0.058-0.082 0.105-0.104 0.105-0.050 0 0.219-0.972 1.151-1.297 1.245-0.525 0.151-1.702 0.121-1.945-0.049v0z"></path>
<path fill="#030303" style="fill: var(--color6, #030303)" d="M37.728 26.335c-0.186-0.138-0.524-2-0.667-3.676-0.064-0.753-0.103-0.872-0.355-1.108-0.409-0.382-0.337-0.88 0.126-0.88 0.179 0 0.269-0.258 0.333-0.959 0.115-1.252 0.542-2.906 0.97-3.756 0.49-0.973 1.749-2.043 2.404-2.043 0.215 0 0.791 0.188 1.498 0.487 0.109 0.046 0.324 0.135 0.478 0.196 0.193 0.078 0.352 0.272 0.516 0.634 0.432 0.952 0.418 2.138-0.039 3.356-0.405 1.077-2.511 3.011-3.578 3.284l-0.506 0.13 0.003 0.95c0.004 1.179 0.145 2.3 0.359 2.862 0.090 0.235 0.131 0.461 0.091 0.5-0.081 0.081-1.527 0.101-1.632 0.023v0zM39.942 19.572c0.411-0.391 0.856-0.926 1.004-1.21 0.309-0.591 0.464-1.499 0.38-2.228-0.093-0.804-0.178-0.85-0.629-0.338-0.69 0.784-1.050 1.63-1.44 3.384-0.091 0.41-0.188 0.824-0.215 0.919-0.092 0.324 0.16 0.176 0.9-0.527v0zM27.399 21.008c-0.064-1.013-0.138-1.877-0.165-1.92s-0.395-0.11-0.819-0.149c-0.871-0.079-1.024-0.163-1.024-0.561 0-0.445 0.319-0.603 1.066-0.527l0.623 0.064-0.004-0.386c-0.002-0.213-0.047-0.722-0.099-1.132-0.382-3.002-0.454-5.132-0.195-5.813 0.079-0.209 0.159-0.249 0.498-0.249 0.39 0 1.306 0.379 1.44 0.596 0.049 0.080 0.133 3.051 0.163 5.814 0.002 0.164-0.028 0.444-0.066 0.621-0.062 0.287-0.045 0.323 0.148 0.323 0.178 0 0.211-0.049 0.185-0.273-0.027-0.232 0.008-0.278 0.235-0.304 0.214-0.025 0.401 0.098 0.941 0.616 0.37 0.356 0.64 0.68 0.6 0.72-0.151 0.151-0.831 0.331-1.262 0.334-0.952 0.006-0.892-0.135-0.836 1.986 0.056 2.116 0.114 1.971-0.81 2.042l-0.503 0.039-0.116-1.841zM12.775 22.286c-0.065-0.26-0.226-0.718-0.359-1.019-0.259-0.587-0.592-1.696-0.942-3.13-0.12-0.492-0.253-0.96-0.297-1.040-0.112-0.206-0.178 0.446-0.238 2.331-0.028 0.875-0.11 1.791-0.182 2.037l-0.132 0.447-1.963 0.182-0.22-0.276c-0.121-0.152-0.501-0.741-0.844-1.31s-0.636-1.021-0.651-1.006c-0.015 0.015 0.030 0.448 0.101 0.961s0.108 1.011 0.083 1.106c-0.068 0.26-1.005 0.628-1.558 0.612-0.459-0.013-0.557-0.203-0.703-1.371-0.249-1.991-0.272-2.453-0.2-4.166l0.071-1.703 0.437-0.117c0.704-0.188 1.487-0.152 1.702 0.079 0.1 0.108 0.581 0.968 1.068 1.913l0.885 1.717 0.125-0.944c0.185-1.391 0.735-3.254 1.21-4.093l0.186-0.33 0.877 0.021c0.722 0.018 0.912 0.056 1.073 0.217 0.249 0.249 0.72 2.032 1.413 5.349 0.082 0.395 0.215 0.904 0.296 1.131s0.146 0.495 0.146 0.596 0.112 0.526 0.248 0.944c0.251 0.77 0.302 1.021 0.183 0.902-0.036-0.036-0.126-0.015-0.199 0.045-0.106 0.088-1.152 0.365-1.438 0.381-0.035 0.002-0.116-0.209-0.181-0.468v0zM16.814 22.549c-0.472-0.111-0.677-0.22-1.346-0.713-0.764-0.563-0.893-0.912-0.908-2.458-0.015-1.581 0.055-2.27 0.318-3.104 0.244-0.777 0.831-1.503 1.68-2.079 0.512-0.347 0.558-0.359 1.082-0.284 0.934 0.136 1.396 0.321 1.553 0.623 0.309 0.595 0.416 3.991 0.14 4.438-0.099 0.16-1.737 0.165-2.285 0.008-0.182-0.052-0.37-0.071-0.416-0.042s-0.084 0.374-0.083 0.767c0.003 0.846 0.213 1.388 0.697 1.796 0.294 0.247 0.38 0.27 0.784 0.21 0.25-0.037 0.569-0.135 0.709-0.218 0.345-0.203 1.262-0.023 1.575 0.309l0.217 0.231-0.526 0.2c-0.966 0.367-2.377 0.506-3.191 0.314v0zM17.46 17.516c0.048-0.575-0.027-1.615-0.115-1.615-0.096 0-0.486 0.939-0.599 1.442-0.071 0.316-0.055 0.371 0.133 0.447 0.434 0.175 0.549 0.121 0.581-0.273zM23.155 22.392c-1.472-0.187-2.001-0.463-2.609-1.36-0.456-0.673-0.474-0.728-0.532-1.597-0.041-0.621-0.020-1.009 0.068-1.248 0.070-0.191 0.198-0.671 0.284-1.067 0.306-1.407 0.637-2.014 1.699-3.119 0.486-0.506 0.61-0.584 0.925-0.582 0.2 0.001 0.558 0.091 0.797 0.199s0.487 0.197 0.553 0.197c0.066 0 0.223 0.097 0.35 0.215 0.224 0.208 0.228 0.249 0.161 1.315-0.038 0.605-0.11 1.149-0.16 1.209s-0.103 0.693-0.117 1.408l-0.027 1.299-0.56 0.157c-0.494 0.138-0.645 0.14-1.29 0.017-0.808-0.154-0.878-0.123-0.881 0.387-0.002 0.397 0.353 1.099 0.761 1.508 0.285 0.285 0.407 0.337 0.794 0.337 0.637 0 1.218-0.194 1.396-0.466 0.184-0.281 0.377-0.289 0.799-0.032 0.501 0.305 0.444 0.62-0.158 0.879-0.845 0.363-1.421 0.452-2.252 0.346v0zM22.944 18.162c0.033-0.123 0.059-0.716 0.057-1.317-0.003-1.048-0.009-1.081-0.158-0.807-0.191 0.353-0.731 1.897-0.731 2.090 0 0.166 0.149 0.238 0.51 0.249 0.191 0.006 0.278-0.052 0.322-0.216v0zM32.284 22.215c-0.517-0.362-0.94-1.875-1.126-4.029-0.091-1.049-0.073-1.595 0.058-1.807 0.094-0.151 0.627-0.083 1.104 0.142 0.883 0.416 0.856 0.348 0.942 2.388 0.087 2.066 0.14 2.486 0.307 2.431 0.22-0.073 1.029-1.375 1.151-1.853 0.067-0.262 0.115-0.897 0.106-1.41s-0.016-1.035-0.016-1.16c-0-0.285 0.191-0.52 0.423-0.52 0.25 0 1.428 0.557 1.59 0.751 0.109 0.131 0.111 0.329 0.015 1.088-0.125 0.992-0.257 1.392-0.542 1.652-0.098 0.089-0.282 0.358-0.408 0.596s-0.289 0.433-0.362 0.433c-0.073 0-0.151 0.067-0.173 0.149-0.036 0.133-0.029 0.133 0.065 0 0.058-0.082 0.105-0.104 0.105-0.050 0 0.219-0.972 1.151-1.297 1.245-0.524 0.15-1.702 0.121-1.943-0.048v0z"></path>
</symbol>
<symbol id="icon-blogger" viewBox="0 0 32 32">
<path d="M29 0h-26c-1.65 0-3 1.35-3 3v26c0 1.65 1.35 3 3 3h26c1.65 0 3-1.35 3-3v-26c0-1.65-1.35-3-3-3zM28 20.25c0 4.281-3.481 7.75-7.794 7.75h-8.4c-4.313 0-7.806-3.469-7.806-7.75v-8.5c0-4.281 3.494-7.75 7.806-7.75h3.931c4.313 0 7.762 3.219 7.762 7.5 0.056 0.8 0.781 1.5 1.6 1.5h1.344c0.863 0 1.55 0.906 1.55 1.762v5.488z"></path>
<path d="M22 20c0 1.1-0.9 2-2 2h-8c-1.1 0-2-0.9-2-2v0c0-1.1 0.9-2 2-2h8c1.1 0 2 0.9 2 2v0z"></path>
<path d="M18 12c0 1.1-0.9 2-2 2h-4c-1.1 0-2-0.9-2-2v0c0-1.1 0.9-2 2-2h4c1.1 0 2 0.9 2 2v0z"></path>
</symbol>
<symbol id="icon-exercism" viewBox="0 0 32 32">
<path d="M19.256 10.344s0.206 2.113-1.144 3.256c-0.544-0.344-1.225-0.537-2.031-0.537-0.744 0-1.475 0.213-2.106 0.606-1.444-1.131-1.225-3.325-1.225-3.325-1.6 3.119 0.081 4.338 0.119 4.369-0.444 0.637-0.719 1.444-0.719 2.388 0 2.531 1.856 4.025 4.169 4.025 1.181 0 2.188-0.394 2.988-0.894l-0.55-0.988c-0.694 0.406-1.4 0.663-2.231 0.663-1.544 0-2.675-0.894-2.769-2.406h5.788c0.031-0.188 0.081-0.488 0.081-0.8 0-0.756-0.163-1.431-0.475-1.988 0.15-0.119 1.644-1.369 0.106-4.369zM13.738 16.425c0.206-1.369 1.225-2.137 2.375-2.137 1.319 0 2.063 0.769 2.063 2.137h-4.438zM16 28c-6.619 0-12-5.381-12-12s5.381-12 12-12 12 5.381 12 12-5.381 12-12 12zM16 5.556c-5.762 0-10.444 4.688-10.444 10.444 0 5.762 4.688 10.444 10.444 10.444 5.762 0 10.444-4.688 10.444-10.444 0-5.762-4.681-10.444-10.444-10.444z"></path>
</symbol>
<symbol id="icon-instagram" viewBox="0 0 32 32">
<path d="M16 2.881c4.275 0 4.781 0.019 6.462 0.094 1.563 0.069 2.406 0.331 2.969 0.55 0.744 0.288 1.281 0.638 1.837 1.194 0.563 0.563 0.906 1.094 1.2 1.838 0.219 0.563 0.481 1.412 0.55 2.969 0.075 1.688 0.094 2.194 0.094 6.463s-0.019 4.781-0.094 6.463c-0.069 1.563-0.331 2.406-0.55 2.969-0.288 0.744-0.637 1.281-1.194 1.837-0.563 0.563-1.094 0.906-1.837 1.2-0.563 0.219-1.413 0.481-2.969 0.55-1.688 0.075-2.194 0.094-6.463 0.094s-4.781-0.019-6.463-0.094c-1.563-0.069-2.406-0.331-2.969-0.55-0.744-0.288-1.281-0.637-1.838-1.194-0.563-0.563-0.906-1.094-1.2-1.837-0.219-0.563-0.481-1.413-0.55-2.969-0.075-1.688-0.094-2.194-0.094-6.463s0.019-4.781 0.094-6.463c0.069-1.563 0.331-2.406 0.55-2.969 0.288-0.744 0.638-1.281 1.194-1.838 0.563-0.563 1.094-0.906 1.838-1.2 0.563-0.219 1.412-0.481 2.969-0.55 1.681-0.075 2.188-0.094 6.463-0.094zM16 0c-4.344 0-4.887 0.019-6.594 0.094-1.7 0.075-2.869 0.35-3.881 0.744-1.056 0.412-1.95 0.956-2.837 1.85-0.894 0.888-1.438 1.781-1.85 2.831-0.394 1.019-0.669 2.181-0.744 3.881-0.075 1.713-0.094 2.256-0.094 6.6s0.019 4.887 0.094 6.594c0.075 1.7 0.35 2.869 0.744 3.881 0.413 1.056 0.956 1.95 1.85 2.837 0.887 0.887 1.781 1.438 2.831 1.844 1.019 0.394 2.181 0.669 3.881 0.744 1.706 0.075 2.25 0.094 6.594 0.094s4.888-0.019 6.594-0.094c1.7-0.075 2.869-0.35 3.881-0.744 1.050-0.406 1.944-0.956 2.831-1.844s1.438-1.781 1.844-2.831c0.394-1.019 0.669-2.181 0.744-3.881 0.075-1.706 0.094-2.25 0.094-6.594s-0.019-4.887-0.094-6.594c-0.075-1.7-0.35-2.869-0.744-3.881-0.394-1.063-0.938-1.956-1.831-2.844-0.887-0.887-1.781-1.438-2.831-1.844-1.019-0.394-2.181-0.669-3.881-0.744-1.712-0.081-2.256-0.1-6.6-0.1v0z"></path>
<path d="M16 7.781c-4.537 0-8.219 3.681-8.219 8.219s3.681 8.219 8.219 8.219 8.219-3.681 8.219-8.219c0-4.537-3.681-8.219-8.219-8.219zM16 21.331c-2.944 0-5.331-2.387-5.331-5.331s2.387-5.331 5.331-5.331c2.944 0 5.331 2.387 5.331 5.331s-2.387 5.331-5.331 5.331z"></path>
<path d="M26.462 7.456c0 1.060-0.859 1.919-1.919 1.919s-1.919-0.859-1.919-1.919c0-1.060 0.859-1.919 1.919-1.919s1.919 0.859 1.919 1.919z"></path>
</symbol>
<symbol id="icon-trophy" viewBox="0 0 32 32">
<path d="M24.5 0h-17c-4.143 0-7.5 3.357-7.5 7.5s3.357 7.5 7.5 7.5h1.364c1.596 1.626 3.74 2.71 6.136 2.948v10.052h-3l-4 4h16l-4-4h-3v-10.052c2.396-0.238 4.54-1.322 6.136-2.948h1.364c4.143 0 7.5-3.357 7.5-7.5s-3.357-7.5-7.5-7.5zM2 7.5c0-2.514 1.696-4.61 4-5.267v5.767c0 1.816 0.492 3.516 1.339 4.983-2.961-0.087-5.339-2.501-5.339-5.483zM24.661 12.983c0.847-1.467 1.339-3.167 1.339-4.983v-5.767c2.304 0.656 4 2.753 4 5.267 0 2.982-2.378 5.396-5.339 5.483z"></path>
</symbol>
<symbol id="icon-office" viewBox="0 0 32 32">
<path d="M0 32h16v-32h-16v32zM10 4h4v4h-4v-4zM10 12h4v4h-4v-4zM10 20h4v4h-4v-4zM2 4h4v4h-4v-4zM2 12h4v4h-4v-4zM2 20h4v4h-4v-4zM18 10h14v2h-14zM18 32h4v-8h6v8h4v-18h-14z"></path>
</symbol>
<symbol id="icon-clock" viewBox="0 0 32 32">
<path d="M20.586 23.414l-6.586-6.586v-8.828h4v7.172l5.414 5.414zM16 0c-8.837 0-16 7.163-16 16s7.163 16 16 16 16-7.163 16-16-7.163-16-16-16zM16 28c-6.627 0-12-5.373-12-12s5.373-12 12-12c6.627 0 12 5.373 12 12s-5.373 12-12 12z"></path>
</symbol>
<symbol id="icon-reddit" viewBox="0 0 32 32">
<path d="M8 20c0-1.105 0.895-2 2-2s2 0.895 2 2c0 1.105-0.895 2-2 2s-2-0.895-2-2zM20 20c0-1.105 0.895-2 2-2s2 0.895 2 2c0 1.105-0.895 2-2 2s-2-0.895-2-2zM20.097 24.274c0.515-0.406 1.262-0.317 1.668 0.198s0.317 1.262-0.198 1.668c-1.434 1.13-3.619 1.86-5.567 1.86s-4.133-0.73-5.567-1.86c-0.515-0.406-0.604-1.153-0.198-1.668s1.153-0.604 1.668-0.198c0.826 0.651 2.46 1.351 4.097 1.351s3.271-0.7 4.097-1.351zM32 16c0-2.209-1.791-4-4-4-1.504 0-2.812 0.83-3.495 2.057-2.056-1.125-4.561-1.851-7.29-2.019l2.387-5.36 4.569 1.319c0.411 1.167 1.522 2.004 2.83 2.004 1.657 0 3-1.343 3-3s-1.343-3-3-3c-1.142 0-2.136 0.639-2.642 1.579l-5.091-1.47c-0.57-0.164-1.173 0.116-1.414 0.658l-3.243 7.282c-2.661 0.187-5.102 0.907-7.114 2.007-0.683-1.227-1.993-2.056-3.496-2.056-2.209 0-4 1.791-4 4 0 1.635 0.981 3.039 2.387 3.659-0.252 0.751-0.387 1.535-0.387 2.341 0 5.523 6.268 10 14 10s14-4.477 14-10c0-0.806-0.134-1.589-0.387-2.34 1.405-0.62 2.387-2.025 2.387-3.66zM27 5.875c0.621 0 1.125 0.504 1.125 1.125s-0.504 1.125-1.125 1.125-1.125-0.504-1.125-1.125 0.504-1.125 1.125-1.125zM2 16c0-1.103 0.897-2 2-2 0.797 0 1.487 0.469 1.808 1.145-1.045 0.793-1.911 1.707-2.552 2.711-0.735-0.296-1.256-1.016-1.256-1.856zM16 29.625c-6.42 0-11.625-3.414-11.625-7.625s5.205-7.625 11.625-7.625c6.42 0 11.625 3.414 11.625 7.625s-5.205 7.625-11.625 7.625zM28.744 17.856c-0.641-1.003-1.507-1.918-2.552-2.711 0.321-0.676 1.011-1.145 1.808-1.145 1.103 0 2 0.897 2 2 0 0.84-0.52 1.56-1.256 1.856z"></path>
</symbol>
<symbol id="icon-profile" viewBox="0 0 32 32">
<path d="M28 9h-1.958v-2.938l-4.042-0.062 0.021 3h-12.146l0.083-3-3.958 0.062v3l-2-0.062c-1.104 0-2 0.896-2 2v14c0 1.104 0.896 2 2 2h24c1.104 0 2-0.896 2-2v-14c0-1.104-0.896-2-2-2zM23 7h2v4h-2v-4zM10 13.812c1.208 0 2.188 1.287 2.188 2.875s-0.98 2.875-2.188 2.875-2.188-1.287-2.188-2.875 0.98-2.875 2.188-2.875zM7 7h2v4h-2v-4zM5.667 22.948c0 0 0.237-1.902 0.776-2.261s2.090-0.598 2.090-0.598 1.006 1.075 1.434 1.075c0.427 0 1.433-1.075 1.433-1.075s1.552 0.238 2.091 0.598c0.633 0.422 0.791 2.261 0.791 2.261h-8.615zM26 22h-9v-1h9v1zM26 20h-9v-1h9v1zM26 18h-9v-1h9v1zM26 16h-9v-1h9v1z"></path>
</symbol>
<symbol id="icon-tools" viewBox="0 0 32 32">
<path d="M28.354 1.354c0.115-0.115 0.167-0.279 0.139-0.439s-0.132-0.297-0.28-0.366c-2.291-1.080-5.010-0.606-6.798 1.191-1.698 1.709-2.291 4.393-1.499 6.637l-11.539 11.539c-0.627-0.224-1.297-0.336-1.996-0.336-1.714 0-3.376 0.682-4.559 1.872-1.782 1.792-2.284 4.44-1.281 6.747 0.066 0.152 0.203 0.262 0.366 0.292 0.164 0.031 0.331-0.021 0.447-0.139l3.491-3.509c0.23-0.232 0.601-0.263 0.793-0.068l1.507 1.577c0.219 0.221 0.209 0.562-0.022 0.795l-3.478 3.5c-0.115 0.115-0.166 0.279-0.138 0.439s0.132 0.296 0.279 0.365c0.829 0.391 1.701 0.588 2.591 0.588 1.572 0 3.065-0.632 4.207-1.78 1.698-1.708 2.291-4.392 1.498-6.636l11.539-11.54c0.628 0.224 1.298 0.336 1.997 0.336 1.714 0 3.376-0.682 4.559-1.872 1.782-1.792 2.284-4.44 1.281-6.747-0.066-0.152-0.203-0.262-0.366-0.292-0.161-0.028-0.33 0.021-0.447 0.139l-3.491 3.509c-0.215 0.216-0.58 0.214-0.801-0.010l-1.499-1.499c-0.226-0.227-0.225-0.568-0.001-0.794l3.501-3.499zM24.146 6.354l1.499 1.499c0.599 0.602 1.625 0.605 2.218 0.009l2.93-2.944c0.469 1.741-0.016 3.609-1.324 4.926-0.997 1.003-2.399 1.577-3.85 1.577-0.683 0-1.33-0.128-1.923-0.38-0.188-0.081-0.405-0.037-0.549 0.106l-12 12c-0.144 0.144-0.186 0.36-0.107 0.547 0.803 1.91 0.314 4.375-1.163 5.861-1.321 1.328-3.244 1.801-4.985 1.258l2.941-2.96c0.621-0.625 0.631-1.594 0.029-2.198l-1.506-1.577c-0.581-0.585-1.614-0.549-2.218 0.062l-2.93 2.944c-0.469-1.741 0.016-3.609 1.324-4.926 0.997-1.003 2.399-1.577 3.85-1.577 0.683 0 1.33 0.128 1.923 0.38 0.187 0.082 0.405 0.037 0.549-0.106l12-12c0.144-0.144 0.186-0.36 0.107-0.547-0.803-1.91-0.314-4.376 1.163-5.862 1.32-1.328 3.242-1.798 4.982-1.258l-2.96 2.961c-0.616 0.617-0.616 1.585 0 2.205zM29.21 30.647c-0.221 0.222-0.604 0.222-0.827-0.002l-10.030-10c-0.195-0.193-0.512-0.194-0.707 0.002s-0.194 0.512 0.001 0.707l10.029 9.998c0.3 0.301 0.698 0.467 1.122 0.467 0 0 0 0 0 0 0.424 0 0.822-0.166 1.128-0.474l1.429-1.493c0.615-0.618 0.615-1.587-0.001-2.206l-10-10c-0.195-0.195-0.512-0.195-0.707 0s-0.195 0.512 0 0.707l9.999 9.999c0.229 0.23 0.229 0.564-0.007 0.802l-1.429 1.493zM5.854 3.146l-3-3c-0.195-0.195-0.512-0.195-0.707 0l-2 2c-0.195 0.195-0.195 0.512 0 0.707l3 3c0.097 0.098 0.225 0.147 0.353 0.147s0.256-0.049 0.354-0.146l0.646-0.647 7.646 7.646c0.098 0.098 0.226 0.147 0.354 0.147s0.256-0.049 0.354-0.146c0.195-0.195 0.195-0.512 0-0.707l-7.647-7.647 0.646-0.646c0.196-0.196 0.196-0.512 0.001-0.708zM3.5 4.793l-2.293-2.293 1.293-1.293 2.293 2.293-1.293 1.293z"></path>
</symbol>
<symbol id="icon-location" viewBox="0 0 32 32">
<path d="M16.002 17.746c3.309 0 6-2.692 6-6s-2.691-6-6-6c-3.309 0-6 2.691-6 6s2.691 6 6 6zM16.002 6.746c2.758 0 5 2.242 5 5s-2.242 5-5 5c-2.758 0-5-2.242-5-5s2.242-5 5-5zM16 0c-6.618 0-12 5.316-12 12.001 0 7 6.001 14.161 10.376 19.194 0.016 0.020 0.718 0.805 1.586 0.805 0.002 0 0.073 0 0.077 0 0.867 0 1.57-0.785 1.586-0.805 4.377-5.033 10.377-12.193 10.377-19.194 0-6.685-5.383-12.001-12.002-12.001zM16.117 29.883c-0.021 0.020-0.082 0.064-0.135 0.098-0.010-0.027-0.084-0.086-0.129-0.133-3.665-4.217-9.853-11.334-9.853-17.847 0-5.514 4.487-10.001 10-10.001 5.516 0 10.002 4.487 10.002 10.002 0 6.512-6.188 13.629-9.885 17.881z"></path>
</symbol>
<symbol id="icon-mail" viewBox="0 0 32 32">
<path d="M28 5h-24c-2.209 0-4 1.792-4 4v13c0 2.209 1.791 4 4 4h24c2.209 0 4-1.791 4-4v-13c0-2.208-1.791-4-4-4zM2 10.25l6.999 5.25-6.999 5.25v-10.5zM30 22c0 1.104-0.898 2-2 2h-24c-1.103 0-2-0.896-2-2l7.832-5.875 4.368 3.277c0.533 0.398 1.166 0.6 1.8 0.6 0.633 0 1.266-0.201 1.799-0.6l4.369-3.277 7.832 5.875zM30 20.75l-7-5.25 7-5.25v10.5zM17.199 18.602c-0.349 0.262-0.763 0.4-1.199 0.4s-0.851-0.139-1.2-0.4l-12.8-9.602c0-1.103 0.897-2 2-2h24c1.102 0 2 0.897 2 2l-12.801 9.602z"></path>
</symbol>
<symbol id="icon-phone" viewBox="0 0 24 24">
<path d="M6.609 10.781q2.25 4.359 6.609 6.609l2.203-2.203q0.469-0.469 1.031-0.234 1.688 0.563 3.563 0.563 0.422 0 0.703 0.281t0.281 0.703v3.516q0 0.422-0.281 0.703t-0.703 0.281q-7.031 0-12.023-4.992t-4.992-12.023q0-0.422 0.281-0.703t0.703-0.281h3.516q0.422 0 0.703 0.281t0.281 0.703q0 1.875 0.563 3.563 0.188 0.609-0.234 1.031z"></path>
</symbol>
<symbol id="icon-newspaper" viewBox="0 0 24 24">
<path d="M6 16h12v-6h-12v6zM7 11h10v4h-10v-4zM6 8h12v1h-12zM6 17h5v1h-5zM6 19h3v1h-3zM10.035 19.059h1v1h-1zM13 17h5v1h-5zM13 19h5v1h-5zM20 4v-0.941c0-1.159-0.998-2.059-3.465-2.059h-12c-1.654 0-2.535 1.404-2.535 3.059v17c0 1.654 0.881 2.941 2.535 2.941h14c1.654 0 1.465 0 3.465 0v-20h-2zM20 22h-15.465c-0.551 0-0.535-0.391-0.535-0.941v-17c0-0.551-0.016-1.059 0.535-1.059h13.465v1h-12v2h14v16z"></path>
</symbol>
<symbol id="icon-chevron-down" viewBox="0 0 20 20">
<path d="M4.516 7.548c0.436-0.446 1.043-0.481 1.576 0l3.908 3.747 3.908-3.747c0.533-0.481 1.141-0.446 1.574 0 0.436 0.445 0.408 1.197 0 1.615-0.406 0.418-4.695 4.502-4.695 4.502-0.217 0.223-0.502 0.335-0.787 0.335s-0.57-0.112-0.789-0.335c0 0-4.287-4.084-4.695-4.502s-0.436-1.17 0-1.615z"></path>
</symbol>
<symbol id="icon-chevron-up" viewBox="0 0 20 20">
<path d="M15.484 12.452c-0.436 0.446-1.043 0.481-1.576 0l-3.908-3.747-3.908 3.747c-0.533 0.481-1.141 0.446-1.574 0-0.436-0.445-0.408-1.197 0-1.615 0.406-0.418 4.695-4.502 4.695-4.502 0.217-0.223 0.502-0.335 0.787-0.335s0.57 0.112 0.789 0.335c0 0 4.287 4.084 4.695 4.502s0.436 1.17 0 1.615z"></path>
</symbol>
<symbol id="icon-dots-three-horizontal" viewBox="0 0 20 20">
<path d="M10.001 7.8c-1.215 0-2.201 0.985-2.201 2.2s0.986 2.2 2.201 2.2c1.215 0 2.199-0.985 2.199-2.2s-0.984-2.2-2.199-2.2zM3.001 7.8c-1.215 0-2.201 0.985-2.201 2.2s0.986 2.2 2.201 2.2c1.215 0 2.199-0.986 2.199-2.2s-0.984-2.2-2.199-2.2zM17.001 7.8c-1.215 0-2.201 0.985-2.201 2.2s0.986 2.2 2.201 2.2c1.215 0 2.199-0.985 2.199-2.2s-0.984-2.2-2.199-2.2z"></path>
</symbol>
<symbol id="icon-thumbs-up" viewBox="0 0 20 20">
<path d="M13.648 7.362c-0.133-0.355 3.539-3.634 1.398-6.291-0.501-0.621-2.201 2.975-4.615 4.603-1.332 0.898-4.431 2.81-4.431 3.867v6.842c0 1.271 4.914 2.617 8.648 2.617 1.369 0 3.352-8.576 3.352-9.938 0-1.368-4.221-1.344-4.352-1.7zM5 7.457c-0.658 0-3 0.4-3 3.123v4.848c0 2.721 2.342 3.021 3 3.021 0.657 0-1-0.572-1-2.26v-6.373c0-1.768 1.657-2.359 1-2.359z"></path>
</symbol>
<symbol id="icon-board" viewBox="0 0 48 48">
<path d="M23.5 31.97c-1.12-1.42-2.1-2.12-4.53-2.359-0.44-0.080-0.76-0.46-0.76-0.91 0-0.33 1.080-1.32 1.069-1.33 1.121-1.131 1.721-2.961 1.721-4.371 0-2.189-1.939-4-4.5-4-2.61 0-4.5 1.811-4.5 4 0 1.42 0.59 3.26 1.71 4.391 0 0 1.080 0.979 1.080 1.31 0 0.47-0.36 0.87-0.84 0.93-2.381 0.24-3.341 0.94-4.45 2.34-0.311 0.41-0.49 1.22-0.5 1.65v1.88c0 0.83 0.689 1.5 1.54 1.5h11.92c0.851 0 1.54-0.67 1.54-1.5v-1.88c-0.010-0.432-0.181-1.241-0.5-1.651zM35.5 21h-5c-1.38 0-2.5 1.12-2.5 2.5s1.12 2.5 2.5 2.5h5c1.38 0 2.5-1.12 2.5-2.5s-1.12-2.5-2.5-2.5zM35.5 30h-5c-1.38 0-2.5 1.12-2.5 2.5s1.12 2.5 2.5 2.5h5c1.38 0 2.5-1.12 2.5-2.5s-1.12-2.5-2.5-2.5zM0 42c0 2.21 1.79 4 4 4h40c2.21 0 4-1.79 4-4l-0-32c0-2.21-1.79-4-4-4h-12v-1.8c0-1.22-0.98-2.2-2.2-2.2h-11.6c-1.22 0-2.2 0.98-2.2 2.2v1.8h-12c-2.21 0-4 1.79-4 4v32zM7.2 11h8.8v1.8c0 1.22 0.98 2.2 2.2 2.2h11.6c1.22 0 2.2-0.98 2.2-2.2l-0-1.8h8.8c1.22 0 2.2 0.98 2.2 2.2v25.6c0 1.22-0.98 2.2-2.2 2.2l-33.6-0c-1.22 0-2.2-0.98-2.2-2.2v-25.6c0-1.22 0.98-2.2 2.2-2.2z"></path>
</symbol>
</defs>
</svg>
