<!-- Generated by IcoMoon.io -->
<svg version="1.1" xmlns="http://www.w3.org/2000/svg" width="23" height="32" viewBox="0 0 23 32">
<title>angellist</title>
<path fill="#444" d="M17.018 6.75l-2.036 5.857 2.089 0.375q2.946-8.054 2.946-9.25 0-1-0.679-1-1.018 0-2.321 4.018zM11.679 19.018l0.589 1.571q0.661-0.75 1.268-1.196l-0.589-0.098t-0.688-0.125-0.58-0.152zM6.464 3.018q0 1.75 2.839 9.304 0.321-0.179 0.875-0.179 0.268 0 1.339 0.089l-2.161-6.268q-1.339-3.929-2.196-3.929-0.339 0-0.518 0.313t-0.179 0.67zM5.054 16.571q0 0.643 0.92 2.125t2.098 2.732 1.786 1.25q0.25 0 0.455-0.232t0.205-0.482q0-0.429-0.571-1.821-0.232-0.571-0.571-1.286t-0.848-1.589-1.098-1.446-1.107-0.571q-0.357 0-0.813 0.482t-0.455 0.839zM2.232 22.554q0 0.732 0.446 1.857 1.054 2.589 3.277 4.054t5.027 1.464q4.054 0 6.821-3.036 2.714-3.018 2.714-7.625 0-0.768-0.018-1.196t-0.205-1.107-0.545-1q-1-0.875-3.777-1.348t-4.83-0.473q-0.661 0-0.875 0.196-0.214 0.089-0.214 0.625 0 0.607 0.384 1.071t0.991 0.714 1.384 0.42 1.563 0.205 1.518 0.071 1.25 0h0.411q0.429 0 0.714 0.339 0.268 0.339 0.339 0.982-0.5 0.5-1.714 0.964-1.089 0.393-1.661 0.821-1.143 0.821-1.938 2.036t-0.795 2.446q0 0.554 0.33 1.58t0.33 1.563l-0.054 0.214q-0.071 0.214-0.071 0.25-2.446-0.179-2.607-3.857-0.143 0.036-0.732 0.036 0.036 0.125 0.036 0.375 0 0.946-0.723 1.598t-1.688 0.652q-1.464 0-2.973-1.393t-1.509-2.839q0-0.607 0.589-1.196 0.929 1.143 1.071 1.357 1.375 1.857 2.375 1.857 0.214 0 0.473-0.152t0.259-0.366q0-0.607-1.563-2.589t-2.080-1.982q-0.768 0-1.25 0.795t-0.482 1.616zM0.196 22.714q0-1.804 0.759-2.911t2.438-1.571q-0.5-1.321-0.5-1.857 0-1.107 1.089-2.196t2.179-1.089q0.518 0 1.25 0.268-2.911-8.25-2.911-10.125 0-1.429 0.732-2.33t2.125-0.902q2.339 0 5.804 10.375 0.107 0.304 0.143 0.411 0.107-0.286 0.518-1.42t0.777-2.116 0.964-2.277 1.152-2.196 1.259-1.545 1.366-0.643q1.268 0 2 0.875t0.732 2.179q0 1.929-2.839 9.821 1.089 0.268 1.795 0.821t1.045 1.393 0.464 1.67 0.125 1.973q0 2.679-0.839 5t-2.357 4.018-3.768 2.679-4.964 0.982q-1.982 0-3.982-0.75-2.661-1.018-4.607-3.42t-1.946-5.116z"></path>
</svg>
