<!-- Generated by IcoMoon.io -->
<svg version="1.1" xmlns="http://www.w3.org/2000/svg" width="27" height="32" viewBox="0 0 27 32">
<title>behance</title>
<path fill="#444" d="M22.286 2.286q2.125 0 3.634 1.509t1.509 3.634v17.143q0 2.125-1.509 3.634t-3.634 1.509h-17.143q-2.125 0-3.634-1.509t-1.509-3.634v-17.143q0-2.125 1.509-3.634t3.634-1.509h17.143zM8.911 8.839h-6.625v14.054h6.821q2.089 0 3.518-1.027t1.429-3.045q0-2.821-2.554-3.571 1.911-0.929 1.911-2.929 0-1.018-0.348-1.723t-1.009-1.080-1.411-0.527-1.732-0.152zM8.518 14.518h-3.143v-3.286h2.911q2.125 0 2.125 1.607 0 1.679-1.893 1.679zM8.679 20.5h-3.304v-3.875h3.375q2.214 0 2.214 2.018 0 1.857-2.286 1.857zM20.286 21.071q-1.214 0-1.857-0.679t-0.643-1.911h7.339q0.018-0.179 0.018-0.536 0-2.357-1.33-3.938t-3.634-1.58q-2.286 0-3.75 1.536t-1.464 3.857q0 2.411 1.411 3.875t3.804 1.464q3.661 0 4.768-3.411h-2.464q-0.196 0.607-0.848 0.964t-1.348 0.357zM20.107 14.536q2.018 0 2.214 2.179h-4.536q0.071-1 0.696-1.589t1.625-0.589zM17.214 9.786h5.696v1.375h-5.696v-1.375z"></path>
</svg>
