<!-- Generated by IcoMoon.io -->
<svg version="1.1" xmlns="http://www.w3.org/2000/svg" width="23" height="32" viewBox="0 0 23 32">
<title>child</title>
<path fill="#444" d="M21.214 9.786l-5.214 5.214v14.714q0 0.821-0.589 1.411t-1.411 0.589-1.411-0.589-0.589-1.411v-6.857h-1.143v6.857q0 0.821-0.589 1.411t-1.411 0.589-1.411-0.589-0.589-1.411v-14.714l-5.214-5.214q-0.5-0.5-0.5-1.214t0.5-1.214 1.214-0.5 1.214 0.5l4.071 4.071h6.571l4.071-4.071q0.5-0.5 1.214-0.5t1.214 0.5 0.5 1.214-0.5 1.214zM15.429 6.857q0 1.661-1.17 2.83t-2.83 1.17-2.83-1.17-1.17-2.83 1.17-2.83 2.83-1.17 2.83 1.17 1.17 2.83z"></path>
</svg>
