<!-- Generated by IcoMoon.io -->
<svg version="1.1" xmlns="http://www.w3.org/2000/svg" width="34" height="32" viewBox="0 0 34 32">
<title>code</title>
<path fill="#444" d="M11.018 24.982l-0.893 0.893q-0.179 0.179-0.411 0.179t-0.411-0.179l-8.321-8.321q-0.179-0.179-0.179-0.411t0.179-0.411l8.321-8.321q0.179-0.179 0.411-0.179t0.411 0.179l0.893 0.893q0.179 0.179 0.179 0.411t-0.179 0.411l-7.018 7.018 7.018 7.018q0.179 0.179 0.179 0.411t-0.179 0.411zM21.571 5.929l-6.661 23.054q-0.071 0.232-0.277 0.348t-0.42 0.045l-1.107-0.304q-0.232-0.071-0.348-0.277t-0.045-0.438l6.661-23.054q0.071-0.232 0.277-0.348t0.42-0.045l1.107 0.304q0.232 0.071 0.348 0.277t0.045 0.438zM33.304 17.554l-8.321 8.321q-0.179 0.179-0.411 0.179t-0.411-0.179l-0.893-0.893q-0.179-0.179-0.179-0.411t0.179-0.411l7.018-7.018-7.018-7.018q-0.179-0.179-0.179-0.411t0.179-0.411l0.893-0.893q0.179-0.179 0.411-0.179t0.411 0.179l8.321 8.321q0.179 0.179 0.179 0.411t-0.179 0.411z"></path>
</svg>
