<!-- Generated by IcoMoon.io -->
<svg version="1.1" xmlns="http://www.w3.org/2000/svg" width="32" height="32" viewBox="0 0 32 32">
<title>exercism</title>
<path fill="#444" d="M19.256 10.344s0.206 2.113-1.144 3.256c-0.544-0.344-1.225-0.537-2.031-0.537-0.744 0-1.475 0.213-2.106 0.606-1.444-1.131-1.225-3.325-1.225-3.325-1.6 3.119 0.081 4.338 0.119 4.369-0.444 0.637-0.719 1.444-0.719 2.388 0 2.531 1.856 4.025 4.169 4.025 1.181 0 2.188-0.394 2.988-0.894l-0.55-0.988c-0.694 0.406-1.4 0.663-2.231 0.663-1.544 0-2.675-0.894-2.769-2.406h5.788c0.031-0.188 0.081-0.488 0.081-0.8 0-0.756-0.163-1.431-0.475-1.988 0.15-0.119 1.644-1.369 0.106-4.369zM13.738 16.425c0.206-1.369 1.225-2.137 2.375-2.137 1.319 0 2.063 0.769 2.063 2.137h-4.438zM16 28c-6.619 0-12-5.381-12-12s5.381-12 12-12 12 5.381 12 12-5.381 12-12 12zM16 5.556c-5.762 0-10.444 4.688-10.444 10.444 0 5.762 4.688 10.444 10.444 10.444 5.762 0 10.444-4.688 10.444-10.444 0-5.762-4.681-10.444-10.444-10.444z"></path>
</svg>
