<!-- Generated by IcoMoon.io -->
<svg version="1.1" xmlns="http://www.w3.org/2000/svg" width="32" height="32" viewBox="0 0 32 32">
<title>gitlab</title>
<path fill="#fc6d26" d="M31.693 17.934l-5.259-16.186c-0.18-0.553-0.963-0.553-1.143 0l-3.496 10.758h-11.607l-3.496-10.758c-0.18-0.553-0.963-0.553-1.143 0l-5.259 16.186c-0.037 0.111-0.059 0.239-0.059 0.371 0 0.398 0.194 0.751 0.492 0.97l0.003 0.002 15.265 11.091 15.265-11.091c0.302-0.221 0.495-0.574 0.495-0.972 0-0.133-0.022-0.26-0.061-0.38l0.002 0.008z"></path>
<path fill="#e24329" d="M15.991 30.368l5.804-17.862h-11.608l5.804 17.862z"></path>
<path fill="#fc6d26" d="M15.991 30.368l-5.804-17.862h-8.134l13.938 17.862z"></path>
<path fill="#fca326" d="M2.054 12.506l-1.764 5.428c-0.037 0.111-0.059 0.239-0.059 0.371 0 0.398 0.194 0.751 0.492 0.97l0.003 0.002 15.265 11.091-13.938-17.862z"></path>
<path fill="#e24329" d="M2.054 12.506h8.134l-3.496-10.758c-0.18-0.554-0.963-0.554-1.143 0l-3.495 10.758z"></path>
<path fill="#fc6d26" d="M15.991 30.368l5.804-17.862h8.134l-13.938 17.862z"></path>
<path fill="#fca326" d="M29.929 12.506l1.764 5.428c0.037 0.111 0.059 0.239 0.059 0.371 0 0.398-0.194 0.751-0.492 0.97l-0.003 0.002-15.265 11.091 13.938-17.862z"></path>
<path fill="#e24329" d="M29.929 12.506h-8.134l3.496-10.758c0.18-0.554 0.963-0.554 1.143 0l3.495 10.758z"></path>
</svg>
