<!-- Generated by IcoMoon.io -->
<svg version="1.1" xmlns="http://www.w3.org/2000/svg" width="27" height="32" viewBox="0 0 27 32">
<title>gittip</title>
<path fill="#444" d="M13.804 23.25l6.25-8.446q0.286-0.393 0.438-1.054t-0.107-1.518-1.098-1.411q-0.714-0.464-1.482-0.455t-1.313 0.313-0.973 0.804q-0.643 0.714-1.714 0.714-1.054 0-1.696-0.714-0.429-0.5-0.973-0.804t-1.313-0.313-1.5 0.455q-0.821 0.554-1.080 1.411t-0.107 1.518 0.438 1.054zM27.429 16q0 3.732-1.839 6.884t-4.991 4.991-6.884 1.839-6.884-1.839-4.991-4.991-1.839-6.884 1.839-6.884 4.991-4.991 6.884-1.839 6.884 1.839 4.991 4.991 1.839 6.884z"></path>
</svg>
