<!-- Generated by IcoMoon.io -->
<svg version="1.1" xmlns="http://www.w3.org/2000/svg" width="27" height="32" viewBox="0 0 27 32">
<title>language</title>
<path fill="#444" d="M11.679 19.25q-0.018 0.054-0.223-0.009t-0.563-0.205l-0.357-0.161q-0.786-0.357-1.554-0.875-0.125-0.089-0.732-0.563t-0.679-0.509q-1.196 1.839-2.393 3.232-1.446 1.696-1.875 1.964-0.071 0.036-0.348 0.071t-0.33 0q0.107-0.071 1.464-1.643 0.375-0.429 1.527-2.054t1.402-2.107q0.304-0.536 0.911-1.759t0.643-1.384q-0.143-0.018-1.964 0.589-0.143 0.036-0.491 0.134t-0.616 0.17-0.304 0.089q-0.036 0.036-0.036 0.188t-0.018 0.17q-0.089 0.179-0.554 0.268-0.411 0.125-0.839 0-0.321-0.071-0.5-0.375-0.071-0.107-0.089-0.411 0.107-0.036 0.438-0.089t0.527-0.107q1.036-0.286 1.875-0.571 1.786-0.625 1.821-0.625 0.179-0.036 0.768-0.348t0.786-0.384q0.161-0.054 0.384-0.143t0.259-0.098 0.107 0.009q0.036 0.214-0.018 0.589 0 0.036-0.223 0.482t-0.473 0.955-0.304 0.598q-0.446 0.893-1.375 2.339l1.143 0.5q0.214 0.107 1.33 0.571t1.205 0.5q0.071 0.018 0.188 0.455t0.080 0.545zM8.018 10.571q0.054 0.268-0.071 0.5-0.214 0.411-0.893 0.679-0.536 0.214-1.071 0.214-0.464-0.054-0.875-0.464-0.25-0.268-0.321-0.732l0.018-0.054q0.054 0.054 0.348 0.089t0.473 0 1.036-0.286q0.643-0.214 0.982-0.25 0.304 0 0.375 0.304zM20.482 12.875l1.125 4.054-2.482-0.75zM0.696 27.161l12.393-4.143v-18.429l-12.393 4.161v18.411zM22.857 21.5l1.821 0.554-3.232-11.732-1.786-0.554-3.857 9.571 1.821 0.554 0.804-1.964 3.768 1.161zM13.875 4.321l10.232 3.286v-6.786zM19.429 27.946l2.821 0.232-0.964 2.857-0.714-1.179q-2.321 1.482-4.929 1.929-1.036 0.214-1.625 0.214h-1.5q-1.411 0-3.563-0.696t-3.277-1.518q-0.143-0.125-0.143-0.286 0-0.143 0.089-0.241t0.232-0.098q0.071 0 0.321 0.134t0.545 0.295 0.366 0.196q1.304 0.661 2.848 1.098t2.813 0.438q1.696 0 2.982-0.259t2.804-0.902q0.268-0.125 0.545-0.277t0.607-0.339 0.509-0.295zM27.429 8.679v19.268l-13.821-4.393q-0.25 0.107-6.696 2.277t-6.571 2.17q-0.232 0-0.321-0.232 0-0.018-0.018-0.054v-19.25q0.054-0.161 0.071-0.179 0.089-0.107 0.357-0.196 1.893-0.625 2.661-0.893v-6.857l9.964 3.536q0.036 0 2.866-0.982t5.643-1.938 2.884-0.955q0.357 0 0.357 0.375v7.464z"></path>
</svg>
