<!-- Generated by IcoMoon.io -->
<svg version="1.1" xmlns="http://www.w3.org/2000/svg" width="48" height="32" viewBox="0 0 48 32">
<title>meetup</title>
<path fill="#fff" d="M0.222 8.068h47.322v20.542h-47.322v-20.542z"></path>
<path fill="#f00101" d="M1.962 31.789c-0.641-0.246-1.383-0.95-1.717-1.627l-0.245-0.497v-27.329l0.245-0.497c0.344-0.697 1.075-1.381 1.745-1.632l0.551-0.206h42.917l0.569 0.213c0.684 0.256 1.438 0.965 1.755 1.652l0.217 0.47v27.329l-0.217 0.47c-0.317 0.686-1.071 1.396-1.755 1.652l-0.569 0.213-21.487-0.005c-21.316-0.005-21.491-0.007-22.010-0.206zM47.453 18.137v-9.59h-46.907v19.18h46.907v-9.59zM37.728 26.335c-0.191-0.142-0.525-1.968-0.662-3.625-0.067-0.807-0.102-0.918-0.359-1.158-0.408-0.382-0.339-0.882 0.122-0.882 0.174 0 0.277-0.336 0.35-1.143 0.098-1.078 0.55-2.766 0.956-3.572 0.49-0.973 1.749-2.043 2.404-2.043 0.215 0 0.791 0.188 1.498 0.487 0.109 0.046 0.324 0.135 0.478 0.196 0.36 0.145 0.732 0.942 0.818 1.753 0.076 0.719-0.083 1.676-0.394 2.371-0.48 1.073-2.518 2.892-3.529 3.151l-0.503 0.129 0.003 0.95c0.004 1.179 0.145 2.3 0.359 2.862 0.090 0.235 0.131 0.461 0.091 0.5-0.081 0.081-1.527 0.101-1.632 0.023v0zM39.942 19.572c0.406-0.386 0.852-0.918 0.991-1.184 0.306-0.585 0.476-1.556 0.394-2.252-0.093-0.793-0.18-0.85-0.591-0.386-0.679 0.767-1.087 1.664-1.398 3.076-0.278 1.259-0.306 1.446-0.219 1.446 0.047-0 0.418-0.316 0.824-0.701zM27.399 21.008c-0.064-1.013-0.138-1.877-0.165-1.92s-0.395-0.11-0.819-0.149c-0.871-0.079-1.024-0.163-1.024-0.561 0-0.445 0.319-0.603 1.066-0.527l0.623 0.064-0.004-0.386c-0.002-0.213-0.047-0.722-0.099-1.132-0.382-3.002-0.454-5.132-0.195-5.813 0.079-0.209 0.159-0.249 0.498-0.249 0.39 0 1.306 0.379 1.439 0.595 0.035 0.056 0.085 1.32 0.113 2.809 0.064 3.487 0.065 3.253-0.015 3.627-0.062 0.287-0.045 0.323 0.148 0.323 0.178 0 0.211-0.049 0.185-0.273-0.027-0.232 0.008-0.278 0.233-0.304 0.21-0.024 0.401 0.098 0.919 0.592 0.36 0.343 0.654 0.675 0.654 0.74 0 0.142-0.352 0.222-1.76 0.397l-0.418 0.052 0.049 1.87c0.056 2.122 0.114 1.976-0.81 2.047l-0.503 0.039-0.116-1.841zM12.831 22.601c-0.033-0.086-0.061-0.232-0.063-0.323s-0.117-0.434-0.257-0.762c-0.284-0.665-0.775-2.221-0.942-2.981-0.187-0.853-0.405-1.557-0.463-1.499-0.031 0.031-0.093 0.94-0.137 2.020s-0.14 2.165-0.211 2.411l-0.131 0.447-1.963 0.182-0.22-0.276c-0.121-0.152-0.501-0.741-0.844-1.31s-0.636-1.021-0.651-1.006c-0.015 0.015 0.033 0.467 0.108 1.003s0.114 1.033 0.087 1.104c-0.087 0.227-1.070 0.586-1.568 0.572-0.459-0.013-0.557-0.204-0.704-1.371-0.246-1.954-0.273-2.523-0.201-4.206l0.071-1.663 0.438-0.117c0.705-0.188 1.488-0.152 1.703 0.079 0.1 0.108 0.581 0.968 1.068 1.913l0.885 1.717 0.125-0.944c0.189-1.423 0.834-3.565 1.278-4.242 0.166-0.253 0.182-0.256 1.021-0.192 1.002 0.077 1.151 0.176 1.353 0.896 0.449 1.606 0.602 2.251 1.054 4.445 0.109 0.526 0.264 1.147 0.346 1.379s0.149 0.504 0.149 0.605 0.112 0.526 0.248 0.944c0.251 0.77 0.302 1.021 0.183 0.902-0.036-0.036-0.126-0.015-0.199 0.045-0.106 0.088-1.153 0.365-1.439 0.381-0.035 0.002-0.091-0.067-0.124-0.154v0zM16.814 22.549c-0.472-0.111-0.677-0.22-1.346-0.713-0.77-0.567-0.892-0.906-0.905-2.507-0.014-1.622 0.047-2.208 0.32-3.072 0.25-0.792 0.795-1.46 1.699-2.082 0.614-0.422 0.669-0.425 1.882-0.093 0.461 0.126 0.607 0.218 0.73 0.455 0.316 0.61 0.419 3.984 0.136 4.441-0.098 0.159-1.601 0.168-2.287 0.014-0.213-0.048-0.413-0.063-0.443-0.033s-0.054 0.371-0.052 0.758c0.003 0.835 0.215 1.38 0.697 1.785 0.294 0.247 0.38 0.27 0.784 0.21 0.25-0.037 0.569-0.135 0.709-0.218 0.345-0.203 1.262-0.023 1.575 0.309l0.217 0.231-0.526 0.2c-0.966 0.367-2.377 0.506-3.191 0.314v0zM17.441 16.894c0-0.547-0.040-0.994-0.088-0.994-0.103 0-0.49 0.919-0.608 1.442-0.071 0.316-0.055 0.371 0.133 0.447 0.538 0.217 0.563 0.178 0.563-0.895zM23.155 22.392c-1.472-0.187-2.001-0.463-2.609-1.36-0.45-0.664-0.475-0.736-0.529-1.548-0.047-0.7-0.016-1.010 0.175-1.745 0.571-2.197 0.765-2.586 1.86-3.726 0.499-0.519 0.622-0.597 0.938-0.595 0.2 0.001 0.558 0.091 0.797 0.199s0.487 0.197 0.553 0.197 0.223 0.097 0.35 0.215c0.224 0.208 0.228 0.249 0.161 1.315-0.038 0.605-0.11 1.149-0.16 1.209s-0.103 0.693-0.117 1.408l-0.027 1.299-0.56 0.157c-0.494 0.138-0.645 0.14-1.29 0.017-0.848-0.162-0.913-0.123-0.85 0.514 0.051 0.512 0.58 1.372 0.969 1.573 0.551 0.285 1.675 0.1 1.951-0.321 0.184-0.281 0.377-0.289 0.799-0.032 0.416 0.254 0.439 0.611 0.050 0.792-0.95 0.441-1.557 0.548-2.46 0.433v0zM22.944 18.162c0.033-0.123 0.059-0.716 0.057-1.317-0.003-1.048-0.009-1.081-0.158-0.807-0.191 0.353-0.731 1.897-0.731 2.090 0 0.166 0.149 0.238 0.51 0.249 0.191 0.006 0.278-0.052 0.322-0.216v0zM32.283 22.214c-0.512-0.359-0.939-1.863-1.116-3.933-0.097-1.138-0.083-1.687 0.049-1.901 0.094-0.151 0.627-0.083 1.104 0.142 0.883 0.416 0.856 0.348 0.942 2.388 0.087 2.066 0.14 2.486 0.307 2.431 0.22-0.073 1.029-1.375 1.151-1.854 0.070-0.274 0.113-0.968 0.101-1.63-0.029-1.596 0.078-1.697 1.231-1.163 0.92 0.426 0.926 0.439 0.787 1.544-0.125 0.992-0.257 1.392-0.542 1.652-0.098 0.089-0.282 0.358-0.408 0.596s-0.289 0.433-0.362 0.433c-0.073 0-0.151 0.067-0.173 0.149-0.036 0.133-0.029 0.133 0.065 0 0.058-0.082 0.105-0.104 0.105-0.050 0 0.219-0.972 1.151-1.297 1.245-0.525 0.151-1.702 0.121-1.945-0.049v0z"></path>
<path fill="#030303" d="M37.728 26.335c-0.186-0.138-0.524-2-0.667-3.676-0.064-0.753-0.103-0.872-0.355-1.108-0.409-0.382-0.337-0.88 0.126-0.88 0.179 0 0.269-0.258 0.333-0.959 0.115-1.252 0.542-2.906 0.97-3.756 0.49-0.973 1.749-2.043 2.404-2.043 0.215 0 0.791 0.188 1.498 0.487 0.109 0.046 0.324 0.135 0.478 0.196 0.193 0.078 0.352 0.272 0.516 0.634 0.432 0.952 0.418 2.138-0.039 3.356-0.405 1.077-2.511 3.011-3.578 3.284l-0.506 0.13 0.003 0.95c0.004 1.179 0.145 2.3 0.359 2.862 0.090 0.235 0.131 0.461 0.091 0.5-0.081 0.081-1.527 0.101-1.632 0.023v0zM39.942 19.572c0.411-0.391 0.856-0.926 1.004-1.21 0.309-0.591 0.464-1.499 0.38-2.228-0.093-0.804-0.178-0.85-0.629-0.338-0.69 0.784-1.050 1.63-1.44 3.384-0.091 0.41-0.188 0.824-0.215 0.919-0.092 0.324 0.16 0.176 0.9-0.527v0zM27.399 21.008c-0.064-1.013-0.138-1.877-0.165-1.92s-0.395-0.11-0.819-0.149c-0.871-0.079-1.024-0.163-1.024-0.561 0-0.445 0.319-0.603 1.066-0.527l0.623 0.064-0.004-0.386c-0.002-0.213-0.047-0.722-0.099-1.132-0.382-3.002-0.454-5.132-0.195-5.813 0.079-0.209 0.159-0.249 0.498-0.249 0.39 0 1.306 0.379 1.44 0.596 0.049 0.080 0.133 3.051 0.163 5.814 0.002 0.164-0.028 0.444-0.066 0.621-0.062 0.287-0.045 0.323 0.148 0.323 0.178 0 0.211-0.049 0.185-0.273-0.027-0.232 0.008-0.278 0.235-0.304 0.214-0.025 0.401 0.098 0.941 0.616 0.37 0.356 0.64 0.68 0.6 0.72-0.151 0.151-0.831 0.331-1.262 0.334-0.952 0.006-0.892-0.135-0.836 1.986 0.056 2.116 0.114 1.971-0.81 2.042l-0.503 0.039-0.116-1.841zM12.775 22.286c-0.065-0.26-0.226-0.718-0.359-1.019-0.259-0.587-0.592-1.696-0.942-3.13-0.12-0.492-0.253-0.96-0.297-1.040-0.112-0.206-0.178 0.446-0.238 2.331-0.028 0.875-0.11 1.791-0.182 2.037l-0.132 0.447-1.963 0.182-0.22-0.276c-0.121-0.152-0.501-0.741-0.844-1.31s-0.636-1.021-0.651-1.006c-0.015 0.015 0.030 0.448 0.101 0.961s0.108 1.011 0.083 1.106c-0.068 0.26-1.005 0.628-1.558 0.612-0.459-0.013-0.557-0.203-0.703-1.371-0.249-1.991-0.272-2.453-0.2-4.166l0.071-1.703 0.437-0.117c0.704-0.188 1.487-0.152 1.702 0.079 0.1 0.108 0.581 0.968 1.068 1.913l0.885 1.717 0.125-0.944c0.185-1.391 0.735-3.254 1.21-4.093l0.186-0.33 0.877 0.021c0.722 0.018 0.912 0.056 1.073 0.217 0.249 0.249 0.72 2.032 1.413 5.349 0.082 0.395 0.215 0.904 0.296 1.131s0.146 0.495 0.146 0.596 0.112 0.526 0.248 0.944c0.251 0.77 0.302 1.021 0.183 0.902-0.036-0.036-0.126-0.015-0.199 0.045-0.106 0.088-1.152 0.365-1.438 0.381-0.035 0.002-0.116-0.209-0.181-0.468v0zM16.814 22.549c-0.472-0.111-0.677-0.22-1.346-0.713-0.764-0.563-0.893-0.912-0.908-2.458-0.015-1.581 0.055-2.27 0.318-3.104 0.244-0.777 0.831-1.503 1.68-2.079 0.512-0.347 0.558-0.359 1.082-0.284 0.934 0.136 1.396 0.321 1.553 0.623 0.309 0.595 0.416 3.991 0.14 4.438-0.099 0.16-1.737 0.165-2.285 0.008-0.182-0.052-0.37-0.071-0.416-0.042s-0.084 0.374-0.083 0.767c0.003 0.846 0.213 1.388 0.697 1.796 0.294 0.247 0.38 0.27 0.784 0.21 0.25-0.037 0.569-0.135 0.709-0.218 0.345-0.203 1.262-0.023 1.575 0.309l0.217 0.231-0.526 0.2c-0.966 0.367-2.377 0.506-3.191 0.314v0zM17.46 17.516c0.048-0.575-0.027-1.615-0.115-1.615-0.096 0-0.486 0.939-0.599 1.442-0.071 0.316-0.055 0.371 0.133 0.447 0.434 0.175 0.549 0.121 0.581-0.273zM23.155 22.392c-1.472-0.187-2.001-0.463-2.609-1.36-0.456-0.673-0.474-0.728-0.532-1.597-0.041-0.621-0.020-1.009 0.068-1.248 0.070-0.191 0.198-0.671 0.284-1.067 0.306-1.407 0.637-2.014 1.699-3.119 0.486-0.506 0.61-0.584 0.925-0.582 0.2 0.001 0.558 0.091 0.797 0.199s0.487 0.197 0.553 0.197c0.066 0 0.223 0.097 0.35 0.215 0.224 0.208 0.228 0.249 0.161 1.315-0.038 0.605-0.11 1.149-0.16 1.209s-0.103 0.693-0.117 1.408l-0.027 1.299-0.56 0.157c-0.494 0.138-0.645 0.14-1.29 0.017-0.808-0.154-0.878-0.123-0.881 0.387-0.002 0.397 0.353 1.099 0.761 1.508 0.285 0.285 0.407 0.337 0.794 0.337 0.637 0 1.218-0.194 1.396-0.466 0.184-0.281 0.377-0.289 0.799-0.032 0.501 0.305 0.444 0.62-0.158 0.879-0.845 0.363-1.421 0.452-2.252 0.346v0zM22.944 18.162c0.033-0.123 0.059-0.716 0.057-1.317-0.003-1.048-0.009-1.081-0.158-0.807-0.191 0.353-0.731 1.897-0.731 2.090 0 0.166 0.149 0.238 0.51 0.249 0.191 0.006 0.278-0.052 0.322-0.216v0zM32.284 22.215c-0.517-0.362-0.94-1.875-1.126-4.029-0.091-1.049-0.073-1.595 0.058-1.807 0.094-0.151 0.627-0.083 1.104 0.142 0.883 0.416 0.856 0.348 0.942 2.388 0.087 2.066 0.14 2.486 0.307 2.431 0.22-0.073 1.029-1.375 1.151-1.853 0.067-0.262 0.115-0.897 0.106-1.41s-0.016-1.035-0.016-1.16c-0-0.285 0.191-0.52 0.423-0.52 0.25 0 1.428 0.557 1.59 0.751 0.109 0.131 0.111 0.329 0.015 1.088-0.125 0.992-0.257 1.392-0.542 1.652-0.098 0.089-0.282 0.358-0.408 0.596s-0.289 0.433-0.362 0.433c-0.073 0-0.151 0.067-0.173 0.149-0.036 0.133-0.029 0.133 0.065 0 0.058-0.082 0.105-0.104 0.105-0.050 0 0.219-0.972 1.151-1.297 1.245-0.524 0.15-1.702 0.121-1.943-0.048v0z"></path>
</svg>
